<?xml version="1.0" standalone="no"?>
<!DOCTYPE svg PUBLIC "-//W3C//DTD SVG 1.1//EN" "http://www.w3.org/Graphics/SVG/1.1/DTD/svg11.dtd" >
<svg xmlns="http://www.w3.org/2000/svg" xmlns:xlink="http://www.w3.org/1999/xlink" version="1.1">
<metadata></metadata>
<defs>
<font id="the_great_escaperegular" horiz-adv-x="920" >
<font-face units-per-em="2048" ascent="1638" descent="-410" />
<missing-glyph horiz-adv-x="1000" />
<glyph horiz-adv-x="0" />
<glyph unicode="&#xd;" horiz-adv-x="1000" />
<glyph unicode=" "  horiz-adv-x="1000" />
<glyph unicode="&#x09;" horiz-adv-x="1000" />
<glyph unicode="&#xa0;" horiz-adv-x="1000" />
<glyph unicode="!" horiz-adv-x="376" d="M126 88q0 36 26 50t56 14q16 0 36 -10t37 -26t27 -36t4 -40q-10 -42 -39 -50t-60 4t-56 39t-31 55zM142 1228q0 80 6 185t20 247h10q28 0 59 -13t31 -47q16 -140 17 -249t-2 -201t-9 -171t-6 -158t9 -163t35 -184q-36 -38 -63 -45t-47 7t-32 44t-18 64t-8 69t0 59 q6 88 7 155t-2 130t-5 127t-2 144z" />
<glyph unicode="&#x22;" horiz-adv-x="456" d="M120 1288q22 30 28 81t2 105t-14 103t-16 79q10 6 31 10t37 -14q20 -18 33 -59t17 -92t-2 -106t-22 -99q10 -8 -3 -14t-32 -7t-38 1t-21 12zM274 1296q22 30 28 81t2 105t-14 103t-16 79q10 6 31 10t37 -14q20 -18 33 -59t17 -92t-2 -106t-22 -99q10 -8 -3 -14t-32 -7 t-38 1t-21 12z" />
<glyph unicode="#" horiz-adv-x="1496" d="M20 1109q-6 41 20 75q32 8 75 15t89 15t92 15t84 15v220q0 14 8 23t19 13t23 6t20 2q40 0 50 -35t20 -78t35 -78t97 -35q24 0 47 3t42 12t30 25t11 44q0 22 -10 58t-14 71t6 62t48 29q44 0 61 -35t27 -76t22 -76t46 -35q60 0 96 7t69 15t70 15t97 7q48 -54 39 -79 t-48 -34t-99 -10t-113 -5t-90 -20t-31 -54q22 -98 29 -181t13 -147t19 -107t47 -64t97 -18t169 33q36 -4 60 -16t24 -42q0 -22 -11 -36t-33 -26l-342 -38l14 -300q-18 -18 -44 -29t-49 -8t-39 20t-12 57l-26 236q-40 0 -95 6t-104 3t-83 -25t-34 -78t12 -109t12 -109 q-66 -14 -97 1t-44 53t-19 95t-22 127h-280q-16 0 -19 16t-3 24q0 30 21 45t53 21t71 7t74 4t63 12t40 31q6 56 3 111t-9 110t-11 109t-3 110q-88 -12 -170 -31t-170 -29q-34 24 -40 65zM560 1124l20 -460q30 0 73 -4t86 -4t82 10t59 38q0 128 -16 253t-44 267h-20 q-26 -6 -60 -12t-69 -16t-65 -27t-46 -45z" />
<glyph unicode="$" horiz-adv-x="1168" d="M62 692q2 84 40 165t93 159t117 153t114 145q0 30 -9 58t-21 55t-21 53t-9 54q0 8 8 25t20 33t26 27t26 5q24 -10 44 -37t36 -58t26 -61t14 -44q58 0 100 23t81 51t81 54t98 32q32 0 47 -24t15 -48q0 -30 -27 -52t-67 -42t-87 -37t-87 -35t-67 -40t-27 -50q0 -68 18 -152 t42 -172t47 -173t33 -155q140 24 224 12t120 -46t27 -83t-56 -100t-127 -95t-188 -68q8 -114 -7 -196t-42 -104t-61 29t-64 199q-12 0 -49 -6t-86 -13t-104 -13t-102 -7t-79 5t-34 26q0 56 6 80t15 30t19 3t16 -3q30 -22 86 -20t117 16t118 35t91 39q-2 14 -3 31t-5 34 t-11 32t-21 23q-64 -8 -150 -2t-165 33t-134 79t-55 138zM224 722q0 -60 46 -91t108 -43t123 -12h91q6 54 0 129t-23 150t-43 142t-60 107q-26 0 -67 -51t-80 -117t-67 -128t-28 -86zM766 384q38 14 77 29t51 25t-13 13t-115 -7v-60z" />
<glyph unicode="%" horiz-adv-x="1264" d="M167 1296q5 70 28 136t64 121t95 83q88 2 193 16t209 28t199 21t160 -3t93 -44t0 -102q-42 -108 -108 -224t-144 -239t-162 -254t-160 -268t-136 -281t-92 -294q-16 -42 -46 -63t-56 -18t-39 32t7 87q12 58 51 150t95 206t123 241t137 252t136 242t119 211t88 156t41 80 q-36 -10 -119 -15t-182 -7t-197 -3t-164 -7q64 -2 100 -40t48 -92t3 -118t-35 -118t-68 -91t-94 -37q-70 -2 -113 35t-61 94t-13 127zM278 1276q-6 -46 14 -79t66 -33q40 0 69 40t39 90t-3 95t-57 55q-58 -28 -90 -75t-38 -93zM739 298q7 64 36 120t79 95t116 43 q66 -16 104 -57t52 -95t7 -112t-32 -108t-65 -85t-90 -41q-80 -2 -128 33t-67 89t-12 118zM836 299q-6 -35 2 -66t32 -54t66 -29q44 18 70 60t31 87t-11 84t-56 51q-36 0 -65 -20t-46 -49t-23 -64z" />
<glyph unicode="&#x26;" horiz-adv-x="1176" d="M135 577q7 59 52 117t121 120q-92 48 -135 150t5 244q18 24 50 47t71 44t84 37t89 26q-2 62 -3 122t-1 120q14 54 34 72t39 14t36 -23t27 -39q10 -62 16 -128t10 -138q32 -8 51 -20t47 -34t49 -42t1 -46q-32 -2 -64 3t-82 9q0 -78 4 -173t-2 -179q42 0 60 3t34 8t40 10 t78 7q18 -14 37 -25t32 -23t14 -28t-17 -40q-14 -18 -32 -24t-49 -11t-81 -10t-126 -19q-4 -46 -3 -83t4 -73t4 -73t-1 -79q68 -4 109 0t68 16t50 31t57 45q28 -22 58 -43t43 -41t3 -37t-62 -31q-72 0 -109 -13t-65 -30t-63 -33t-101 -20q-4 -58 2 -121t6 -111 q-2 -54 -38 -71t-75 -7t-65 44t-4 84q12 42 13 96t11 100q-14 4 -38 8t-51 9t-51 12t-36 17q-90 68 -126 131t-29 122zM296 550q6 -26 31 -47t68 -35t97 -26q4 36 3 65t-4 57t-6 57t-1 65q-20 -10 -44 -15t-48 -13t-45 -18t-35 -28q-22 -36 -16 -62zM299 1071q7 -49 33 -85 t68 -59t90 -33q2 78 -5 172t-9 172q-46 -4 -96 -16t-70 -42q-18 -60 -11 -109z" />
<glyph unicode="'" horiz-adv-x="296" d="M120 1288q22 30 28 81t2 105t-14 103t-16 79q10 6 31 10t37 -14q20 -18 33 -59t17 -92t-2 -106t-22 -99q10 -8 -3 -14t-32 -7t-38 1t-21 12z" />
<glyph unicode="(" horiz-adv-x="680" d="M56 462q2 154 33 314t84 316t116 284t130 216t125 116q18 0 29 -9t11 -35q-32 -56 -80 -144t-102 -198t-104 -236t-84 -256t-45 -259t14 -244t94 -212t195 -163q90 -14 113 -33t8 -34t-54 -20t-75 7q-150 20 -239 103t-130 208t-39 279z" />
<glyph unicode=")" horiz-adv-x="840" d="M48 -208q-10 34 32 112q130 84 193 212t78 281t-9 321t-68 330t-97 309t-97 259q-22 40 -25 67t9 37t37 1t59 -41q186 -382 263 -681t65 -533t-107 -410t-253 -312q-70 14 -80 48z" />
<glyph unicode="*" horiz-adv-x="1376" d="M166 174q28 92 77 179t98 176t91 182t56 195q-14 46 -38 87t-51 79t-52 74t-41 76q2 44 21 63t50 23t68 -5t73 -21l69 -23t53 -13q18 0 25 24t11 60t7 77t12 77t28 60t55 24q48 -6 71 -60t29 -123t2 -136t-8 -97q18 -8 72 -25t117 -41t125 -52t97 -58t32 -58t-67 -52 q-54 -40 -106 -68t-103 -51t-99 -46t-92 -55q0 -28 19 -82t31 -108t4 -98t-62 -54q-48 0 -69 28t-35 64t-31 69t-59 43q-68 -28 -118 -80t-97 -112t-95 -117t-110 -95q-30 0 -45 21t-15 49zM544 620q12 0 33 2t41 7t33 14t11 23l-62 88q-10 0 -20 -18t-18 -41t-13 -45 t-5 -30zM566 1025q2 -15 10 -15q34 8 52 27t20 37t-13 29t-47 3q-8 0 -13 -15t-8 -33t-1 -33zM798 960q-2 -26 1 -56t14 -55t35 -25q50 0 101 30t79 72q-58 24 -111 44t-117 20q0 -4 -2 -30z" />
<glyph unicode="+" horiz-adv-x="1072" d="M141 660q-1 22 2 46t3 42q38 10 91 15t105 8t93 5t57 8v220q0 26 18 42t42 19t47 -7t33 -34q2 -64 8 -111t23 -76t49 -43t86 -12q28 0 51 4t45 8t45 6t53 0q16 -34 30 -53t19 -33t-5 -29t-44 -41q-16 0 -62 3t-99 3t-99 -6t-60 -20l24 -336l-176 24l-8 312q-62 8 -98 7 t-67 -5t-67 -10t-96 -8q-24 0 -33 15t-10 37z" />
<glyph unicode="," horiz-adv-x="536" d="M176 168q0 16 14 43t36 27q54 -4 90 -60t51 -134t10 -162t-28 -144t-67 -80t-106 30q6 -12 30 37t38 126t4 164t-72 153z" />
<glyph unicode="-" horiz-adv-x="792" d="M40 632q4 24 16 44t24 24q12 0 40 2t86 4t158 5t256 9q68 0 98 -21t28 -48t-35 -50t-91 -25l-540 -16q-28 6 -36 27t-4 45z" />
<glyph unicode="." horiz-adv-x="368" d="M106 130q0 34 24 53t58 19q20 0 42 -12t40 -30t29 -39t11 -39q0 -24 -5 -55t-35 -31q-24 0 -53 11t-54 30t-41 43t-16 50z" />
<glyph unicode="/" horiz-adv-x="768" d="M26 50q16 62 59 191t100 289t120 334t118 327t94 268t49 155q2 52 36 82t67 32t51 -27t-8 -93q-52 -212 -125 -405t-148 -385t-140 -390t-99 -418q-12 -38 -45 -53t-64 -9t-53 32t-12 70z" />
<glyph unicode="0" horiz-adv-x="1200" d="M93 896q17 164 67 319t131 272t189 182t240 51q114 -16 200 -97t143 -202t84 -271t22 -305t-41 -303t-107 -266t-176 -193t-245 -85q-152 4 -256 83t-165 205t-82 286t-4 324zM205 647q3 -143 45 -259t127 -195t223 -93q102 8 179 73t131 166t85 228t39 260t-6 262 t-50 233t-94 173t-136 85q-86 32 -167 -12t-150 -138t-122 -224t-80 -273t-24 -286z" />
<glyph unicode="1" horiz-adv-x="380" d="M97 1134q-3 138 1 267t22 239q8 20 23 39t32 22t34 -15t31 -70q-4 -182 -8 -373t1 -383t24 -377t63 -355q18 -48 -4 -82t-56 -44t-66 8t-34 70q-2 106 -10 233t-19 263t-21 278t-13 280z" />
<glyph unicode="2" horiz-adv-x="1520" d="M106 1300q22 78 69 150t110 128t140 90t161 34q176 0 279 -102t103 -278q0 -82 -24 -176t-62 -194t-85 -202t-95 -200t-91 -187t-71 -163q216 56 438 116t442 124q32 -2 53 -28t26 -58t-8 -60t-51 -34q-140 0 -274 -32t-266 -75t-264 -87t-266 -68q-30 -8 -47 5t-26 35 t-12 49l-5 45v8q46 70 104 162t117 197t114 217t98 223t69 216t26 197q0 212 -216 212q-70 0 -117 -27t-79 -68t-54 -88t-44 -88t-48 -68t-66 -27q-36 0 -55 36t-23 66z" />
<glyph unicode="3" horiz-adv-x="1072" d="M59 648q-3 18 1 40t4 46q60 74 130 154t137 160t121 157t83 147t24 131t-59 107q-58 2 -109 -39t-96 -98t-83 -117t-68 -92q-34 0 -38 28t-4 66q0 92 50 162t122 118t152 72t138 24q78 -24 100 -88t15 -140t-30 -152t-33 -126q104 20 187 21t139 -31t86 -100t30 -182 q-4 -114 -58 -236t-132 -239t-167 -224t-161 -193q-48 -32 -70 -30t-30 25t-7 60t1 73q58 14 129 82t138 163t118 205t72 208t0 171t-101 97q-88 0 -166 -35t-144 -87t-122 -113t-100 -113t-79 -87t-59 -35q-32 0 -45 11t-16 29z" />
<glyph unicode="4" horiz-adv-x="1020" d="M30 1044q4 86 10 156q0 46 19 66t43 19t46 -23t32 -62q8 -36 5 -87t-8 -107t-5 -113t13 -103t44 -76t91 -34q4 0 18 2t31 7t31 12t20 19q12 88 3 183t-26 192t-32 192t-13 186t27 174t91 155q70 30 87 -9t-21 -113q-30 -84 -38 -203t1 -243t33 -240t58 -196q2 0 5 1t5 1 q66 52 139 115t181 165h4q2 0 3 1t3 1q28 0 40 -24t12 -46q0 -46 -49 -100t-115 -109t-133 -108t-105 -95q0 -92 19 -181t23 -187q-6 -46 -26 -105t-46 -95t-56 -31t-54 87q20 46 31 104t10 119t-15 121t-46 108q-112 -38 -185 -23t-117 65t-63 127t-24 163t-1 172z" />
<glyph unicode="5" d="M60 170q0 20 17 30t40 16t46 10t37 14q52 -70 114 -74t125 37t120 113t100 153t66 160t17 131q0 36 -5 78t-21 79t-45 61t-79 24q-62 0 -103 -27t-69 -67t-49 -87t-42 -87t-49 -67t-70 -27q-24 0 -43 58t-35 146t-26 190t-18 191t-11 150t-3 65q0 14 -1 44t1 63t11 61 t31 36q82 12 156 21t146 22t145 31t153 46q26 2 35 -10t9 -30q-14 -60 -60 -92t-106 -51t-125 -29t-121 -24t-93 -39t-39 -73q0 -38 3 -104t9 -136t14 -135t18 -101q26 30 58 67t69 68t80 50t93 15q80 -6 140 -39t100 -84t60 -117t20 -140q2 -84 -21 -175t-64 -178t-96 -165 t-119 -136t-133 -91t-137 -31t-132 46t-118 140z" />
<glyph unicode="6" horiz-adv-x="960" d="M53 721q1 125 29 252t77 246t117 224t148 189q26 0 41 -5t19 -45q-74 -136 -148 -286t-119 -300t-48 -293t63 -267q6 14 22 57t41 100t58 120t74 118t89 95t104 52q72 0 127 -35t92 -89t56 -120t19 -130q0 -120 -44 -223t-122 -171t-185 -96t-231 2q-28 -14 -22 -33 t24 -41t38 -45t22 -41q0 -34 -33 -48t-63 -14q-38 2 -60 48t-35 107t-19 120t-12 87q-62 102 -91 221t-28 244zM332 296q58 -62 116 -74t111 12t99 76t77 116t47 133t10 128t-37 100t-91 49q-50 -2 -92 -31t-76 -76t-60 -105t-46 -118t-34 -115t-24 -95z" />
<glyph unicode="7" horiz-adv-x="1040" d="M60 1462q-4 18 6 29t25 18t32 10t27 3q64 -32 128 -37t127 6t126 33t127 44t127 38t127 18q28 0 58 -25t30 -57l-40 -1422q0 -24 -6 -44t-21 -29t-42 -2t-71 35l40 1396q-162 -26 -275 -48t-193 -37t-130 -22t-86 0t-62 29t-54 64z" />
<glyph unicode="8" horiz-adv-x="1208" d="M68 1339q6 97 36 178t85 131t138 58t195 -42q98 30 164 6t107 -83t58 -142t19 -172t-10 -174t-30 -145q156 -6 240 -77t105 -174t-15 -222t-119 -223t-207 -177t-280 -83q-86 -8 -144 23t-93 88t-48 132t-9 154t24 153t52 128q-68 34 -121 106t-88 163t-50 194t-9 200z M203 1184q11 -88 42 -163t80 -126t115 -55q20 0 59 15t80 38t77 49t52 48q26 60 46 143t19 166t-31 151t-108 96h-10q-80 -24 -122 -69t-64 -91t-32 -84t-28 -46q-6 -2 -17 1t-25 7t-25 8t-17 4q6 24 19 61t28 76t26 75t11 58q-2 4 -10 13t-12 11q-64 -18 -101 -78t-50 -140 t-2 -168zM404 370q-6 -72 33 -133t139 -95q84 0 167 37t148 103t106 155t41 193q-26 102 -82 143t-124 36t-142 -47t-135 -105t-103 -139t-48 -148z" />
<glyph unicode="9" horiz-adv-x="1120" d="M56 1148q0 100 45 196t118 173t166 129t191 62q54 -22 108 -33t98 -26t72 -38t26 -65q-58 0 -113 12t-113 12q-72 0 -156 -37t-155 -98t-119 -139t-48 -158q0 -96 62 -154t148 -58q98 2 171 37t127 91t93 128t71 149t59 151t57 134q18 12 33 25t25 15t19 -12t15 -56 l-16 -1508q0 -46 -21 -65t-46 -12t-48 39t-25 88q4 70 13 191t12 262t-2 285t-27 260q-2 0 -5 1t-5 1q-34 -94 -105 -167t-160 -118t-185 -55t-177 23t-137 114t-66 221z" />
<glyph unicode=":" horiz-adv-x="432" d="M114 852q0 36 32 48t60 12q60 -24 80 -58t13 -64t-32 -52t-55 -20t-58 32t-40 102zM152 426q0 42 10 51t54 19h10q32 4 54 -16t29 -50t0 -62t-33 -52h-8q-54 0 -85 29t-31 81z" />
<glyph unicode=";" horiz-adv-x="536" d="M134 787q2 35 25 67t67 48q40 6 63 -10t31 -44t3 -61t-20 -60t-40 -41t-57 -4q-38 12 -56 41t-16 64zM162 -440q4 -8 18 22t30 83t28 122t12 139t-16 134t-58 108q0 16 14 43t36 27q38 -14 64 -63t42 -116t21 -146t0 -153t-20 -136t-39 -95t-57 -29t-75 60z" />
<glyph unicode="&#x3c;" horiz-adv-x="736" d="M188 616q2 20 33 55t77 75t101 81t108 73t97 51t66 17q20 -4 29 -12t12 -19t1 -25l-4 -28q-30 -34 -88 -74t-119 -79t-115 -72t-74 -51l332 -332q20 -26 26 -50t0 -41t-23 -22t-43 9q-64 44 -130 104t-124 121t-101 119t-61 100z" />
<glyph unicode="=" horiz-adv-x="912" d="M128 488q4 24 16 44t24 24q12 0 40 2t86 4t158 5t256 9q68 0 98 -21t28 -48t-35 -50t-91 -25l-540 -16q-28 6 -36 27t-4 45zM148 720q4 24 16 44t24 24q12 0 40 2t86 4t158 5t256 9q68 0 98 -21t28 -48t-35 -50t-91 -25l-540 -16q-28 6 -36 27t-4 45z" />
<glyph unicode="&#x3e;" horiz-adv-x="784" d="M74 914q-2 14 1 25t13 18t34 11q26 2 75 -17t109 -50t123 -71t115 -79t86 -74t38 -55q-20 -40 -69 -97t-115 -117t-141 -118t-147 -102q-30 -14 -49 -9t-26 21t0 40t29 50l376 326q-24 18 -84 50t-130 70t-135 78t-99 72z" />
<glyph unicode="?" horiz-adv-x="1208" d="M114 1592q4 24 20 38t38 21t40 7q318 30 522 -6t309 -115t120 -187t-43 -222q-36 -70 -98 -114t-150 -73t-202 -49t-254 -44q0 -36 2 -78t3 -82t1 -73t-2 -53q-6 -78 -22 -115t-35 -37t-37 36t-26 104q-4 26 -4 82t1 117t3 118t4 87q108 34 217 53t202 39t162 50t99 88 q54 102 26 193t-136 147t-295 65t-451 -53q-18 32 -14 56zM276 156q0 36 32 48t60 12q60 -24 80 -58t13 -64t-32 -52t-55 -20t-58 32t-40 102z" />
<glyph unicode="@" horiz-adv-x="1864" d="M176 673q4 159 65 320t177 295t284 228t388 122q154 10 272 -46t199 -159t124 -243t46 -296t-35 -319t-120 -313q-22 -20 -58 -47t-75 -39t-79 1t-72 72t-51 175t-17 312q-32 -72 -82 -154t-112 -152t-132 -116t-143 -47t-143 53t-132 186q-28 134 -4 251t83 212t144 166 t178 114t183 55t160 -9t110 -80t32 -157q-42 -284 -45 -453t18 -246t61 -74t81 61t79 159t55 220t8 245t-60 233t-151 184t-264 99q-178 12 -325 -51t-256 -172t-175 -251t-82 -287t22 -279t136 -227t261 -131t399 8q34 16 70 19t64 -4t42 -23t3 -36t-53 -42t-126 -42 q-248 -38 -429 8t-298 148t-173 246t-52 303zM582 649q-6 -83 36 -165q30 -80 82 -99t114 8t128 92t125 154t105 191t70 204q6 76 -27 110t-89 35t-127 -28t-141 -79t-132 -117t-100 -145t-44 -161z" />
<glyph unicode="A" horiz-adv-x="1624" d="M20 119q8 33 31 53t57 21h2q33 0 70 -33q98 40 165 125t115 175h-45t-61 4t-59 13t-40 26t-4 46t49 71q41 -3 86 -3q22 0 45 1q69 2 129 22q32 52 69 152t76 221t80 246t81 228t79 169t75 66q80 -72 131 -167t87 -203t67 -224t75 -228l324 112q24 0 41 -19t25 -44t5 -48 t-23 -29q-48 -30 -95 -41t-89 -22t-76 -32t-54 -75q0 -68 23 -142t50 -149t50 -149t23 -142q0 -20 -5 -43t-15 -42t-27 -32t-43 -13h-10q-42 72 -63 165t-38 189t-39 189t-64 167q-74 -32 -148 -51t-149 -36t-151 -37t-152 -56q-42 -16 -76 -61t-65 -103t-65 -121t-77 -116 t-97 -87t-128 -34q-20 -2 -38 -2q-39 0 -63 12q-35 18 -47 48q-7 18 -7 37q0 13 3 26zM760 700q112 20 241 56t243 64q0 66 -19 150t-50 170t-72 165t-83 135q-42 -84 -83 -182t-76 -197t-61 -193t-40 -168z" />
<glyph unicode="B" horiz-adv-x="1568" d="M128 370q2 106 11 233t16 256t8 253v19q0 113 -11 205q28 96 94 152t150 79q62 17 130 17q24 0 48 -2q94 -8 178 -39t150 -84t96 -121q20 -44 20 -94q0 -26 -6 -54q-16 -80 -96 -166q64 0 139 -14t149 -42t139 -71t111 -101t65 -131q9 -36 9 -75q0 -41 -10 -86 q-28 -74 -91 -152t-149 -149t-187 -130t-204 -96t-200 -46q-24 -2 -46 -2q-70 0 -127 21q-102 28 -158 61t-72 61t2 49t62 27q15 2 32 2q34 0 77 -8q65 -12 141 -50q60 2 136 20t155 48t157 70t145 88t116 104t71 116q16 41 16 77q0 45 -25 82q-45 67 -140 107t-225 56 q-74 9 -150 9q-57 0 -115 -5q-135 -12 -261 -49t-212 -101q-6 -20 -9 -65q-2 -34 -2 -74v-28q1 -57 2 -121t2 -121q0 -28 0.5 -53.5t-0.5 -48.5q-1 -45 -5 -63q-14 -14 -39 -33t-47 -23q-26 28 -34 104q-6 61 -6 141v41zM290 1344l24 -448q72 14 157 40t163 65t140 95 t90 132q7 22 7 42q0 32 -18 57q-29 41 -87 66t-132 33q-39 4 -78 4q-34 0 -66 -3q-70 -7 -126 -28t-74 -55z" />
<glyph unicode="C" horiz-adv-x="960" d="M40 520q-2 28 -2 58q0 75 11 164q15 124 50 250t92 246t138 213t184 147q96 50 213 50h18q36 -6 63 -23t42 -40t13 -47t-24 -42q-60 17 -114 17q-79 0 -148 -36q-116 -61 -199 -188t-132 -304t-61 -369q0 -13 -1 -25q0 -122 37 -207q40 -94 105 -149t148 -74 q53 -12 106 -12q31 0 62 4q85 11 161 50t128 101v-8q0 -75 -35 -132q-37 -60 -97 -99t-133 -56q-54 -13 -104 -13q-18 0 -35 2q-108 0 -197 41t-154 111t-100 166t-35 204z" />
<glyph unicode="D" horiz-adv-x="1176" d="M12 1352q0 38 26 59t62 33t74 21t62 25q-2 12 -5 41t0 61t14 56t37 24q32 0 48 -19t24 -48t14 -63t20 -64h25q211 0 360 -63q157 -67 249 -178t122 -253q16 -77 16 -156q0 -65 -11 -131q-25 -145 -101 -280t-197 -233t-284 -147q-104 -31 -221 -31q-67 0 -138 10 q-24 14 -37 23t-19 19t-8 25t-2 39h166q8 28 13 46t7 36t1 46t-5 77t-11 128t-16 200t-19 291t-22 404q-24 -6 -49 -19t-49 -27t-47 -25t-45 -11q-34 0 -44 30t-10 54zM376 1344q14 -76 22 -177t13 -215t10 -234t12 -231t18 -206t29 -161q158 50 269 137t178 193t91 224 q15 75 15 146q0 42 -5 83q-14 111 -65 208t-134 160t-198 86q-45 9 -93 9q-77 0 -162 -22z" />
<glyph unicode="E" horiz-adv-x="1256" d="M40 1335q0 81 21 129t73 48q86 0 188 -2q29 -1 59 0q74 0 149 3q106 5 209 21t193 54q49 -12 49 -62q0 -46 -29 -94q-17 1 -35 1q-59 0 -133 -10q-96 -13 -196 -29t-196 -30q-84 -12 -150 -12h-18q-44 0 -52 -45q-3 -17 -3 -38q0 -35 8 -81q13 -74 37 -167t44 -189 q2 0 63 12t149 30t191 38t191 37t148 28q51 9 61 9h3q40 -18 40 -40q0 -7 -4 -15q-18 -31 -87 -64t-176 -65t-229 -58q-16 -4 -58 -15t-90 -23t-90 -22t-58 -12q-5 -66 -4 -122q0 -113 18 -188q28 -112 88 -160q54 -43 131 -43h16q87 5 191 41q48 10 114 35t133 50t124 43 q49 15 79 15h10q32 -3 28 -35t-60 -106q-90 -36 -189 -70t-200 -63t-203 -50t-200 -27q-90 22 -165 68t-111 87q-24 28 -24 45q0 8 5 14q6 6 22 6q29 0 91 -20q12 28 12 76q0 18 -2 40q-6 78 -25 178t-45 215t-49 229t-40 219t-17 186z" />
<glyph unicode="F" horiz-adv-x="1352" d="M72 1337q8 35 38 64t74 31q18 6 63 20t96 30t97 30t64 20q18 42 32 57t32 15t43 -11t63 -21q64 0 144 13t162 31t161 39t143 37q42 -14 59 -29t18 -34t-10 -43t-27 -54q-76 0 -163 -3t-175 -17t-172 -42t-150 -78q0 -100 -1 -198v-9q0 -94 21 -193q94 -20 164 -27 q35 -4 68.5 -3.5t65.5 3.5q64 7 132 29t158 62q2 0 3 -1t3 -1h4q40 -40 40 -76t-24 -62t-66 -38q-25 -7 -51 -7q-17 0 -35 3l-472 -62l28 -738q0 -32 -16 -53t-56 -21q-42 8 -59 24t-20 51q-1 12 -1 26q0 28 4 67q6 58 8 146v41q0 74 -5 169q-7 122 -33 288q-26 -10 -80 -12 h-16q-45 0 -86 9q-48 11 -71 40q-9 11 -9 26q0 24 22 57q14 -2 45 -4t67 -2t71 6t57 20q0 106 -1 209t-39 211q-48 0 -90 -22t-81 -48t-78 -48t-81 -22q-54 6 -72 38q-12 22 -12 46q0 10 2 21z" />
<glyph unicode="G" horiz-adv-x="1472" d="M91 700q17 170 75 335t148 311t194 245t213 137q46 16 90 16q60 0 117 -30q22 -8 28 -22t0 -28t-22 -22t-38 -2q-20 3 -40 3q-66 0 -129 -30q-83 -39 -157 -115t-138 -182t-112 -231t-76 -263t-30 -274q30 -182 98 -280t156 -132q54 -21 113 -21q36 0 74 8q99 21 193 77 t175 137t130 168t58 170q1 14 1 26q0 66 -38 115q-34 0 -88 -27t-120 -68t-140 -88t-146 -88t-140 -68t-122 -27q0 16 13 38t30 44t35 39t28 23q82 36 170 89t179 111t182 113t179 91q24 13 46 13q9 0 17 -2q29 -7 49 -54t32 -140t15 -249q1 -47 1 -100q0 -123 -5 -280 q-7 -224 -25 -532q-16 -38 -30 -70t-29 -46t-35 -6t-46 50v12q0 32 4 98t9 149t10 176t8 178t4 155v27q0 50 -3 79q-58 -96 -128 -181t-156 -150t-190 -105t-228 -46q-190 44 -296 153t-145 256q-27 102 -27 216q0 49 5 101z" />
<glyph unicode="H" horiz-adv-x="1280" d="M22 680q0 38 23 54t56 21t73 5t73 6t56 23t23 59q-34 220 -64 441q-24 174 -24 351q0 47 2 94q28 17 50 17q18 0 32 -11q32 -24 52 -82t30 -142t17 -176t15 -184t23 -166t40 -122t65 -50q34 0 98 6t127 19t110 35t47 56q0 108 -16 212t-35 209t-36 211t-19 218 q42 36 73 36q14 0 26 -7q39 -23 63 -96t37 -180t20 -221t13 -220t16 -178q24 0 79 2t115 8t112 19t70 33q42 -64 42 -98v-6q-4 -34 -40 -48t-91 -16t-108 -5t-94 -16t-49 -51q6 -122 16 -204t19 -157t16 -159t7 -206q-4 -70 -29 -91t-53 -1t-51 77t-25 145q0 110 -5 179 t-11 128t-11 127t-5 178q-30 0 -103 -4t-152 -15t-147 -30t-86 -47q-4 -114 -6 -182t-2 -126t2 -124t6 -178q3 -14 3 -31q0 -23 -6 -50q-11 -47 -33 -82t-53 -46q-7 -2 -13 -2q-24 0 -48 31q2 128 3 216v44q0 65 -2 125q-3 81 -10 169t-21 216q-52 0 -103 -11t-103 -11 q-16 0 -33 2t-31 8t-23 18t-9 34z" />
<glyph unicode="I" horiz-adv-x="320" d="M80 80q2 88 4 210t4 260t4 285t4 286t4 263t4 216q2 28 14 54t28 37t35 0t35 -59q8 -142 13 -296t7 -309q1 -103 1 -204v-100q-1 -149 -3 -281t-6 -240t-8 -182q-14 -18 -37 -18t-45 11t-39 29t-19 38z" />
<glyph unicode="J" horiz-adv-x="1080" d="M84 204q6 42 88 80q24 -64 92 -104t153 -58q77 -16 157 -16h18q90 2 159 21t103 55q19 20 19 45q0 19 -11 41q14 -40 10 -19t-21 88t-43 170t-56 223t-61 250t-56 251t-41 223t-18 170q0 16 9 27t22 15t26 0t23 -18q18 -82 46 -194t63 -240t72 -264t74 -265t70 -244 t59 -201v-10q1 -10 1 -19q0 -81 -46 -130q-51 -55 -137 -80q-83 -24 -185 -24h-8q-107 1 -211 20t-192 52t-136 73q-43 36 -43 73q0 4 1 9z" />
<glyph unicode="K" horiz-adv-x="1192" d="M64 1634q0 12 5 31t14 37t22 30t31 12q36 0 59 -72t37 -183t22 -242t17 -249t19 -206t30 -112q34 6 79 45t94 95t98 125t91 135t73 125t45 95q4 122 26 164q18 34 39 34q5 0 10 -2q27 -10 52 -59t35 -109q0 -88 -51 -192t-123 -205t-152 -188t-136 -143q58 -36 146 -83 t184 -87t191 -65q77 -20 138 -20q15 0 29 1q26 0 47 -16t28 -37t-3 -41t-44 -28q-34 -4 -69 -4q-75 0 -154 18q-115 26 -230 70t-227 92t-216 80l4 -7t10 -46t9 -121q2 -49 2 -124q0 -50 -1 -110q-18 -80 -36 -108t-36 -20t-34 44t-30 84q1 12 1 40t-1 73q-2 89 -8 219 t-17 289t-28 325t-39 326t-52 290z" />
<glyph unicode="L" horiz-adv-x="1032" d="M80 548q-3 80 -3 161.5t3 164.5q6 166 12 324q2 47 2 91q0 103 -10 187q0 84 8 117t22 36t34 -17l44 -44q32 -100 41 -225q7 -102 7 -210v-48q-2 -133 -9 -265t-7 -250t12 -212t49 -149t104 -63q9 -1 18 -1q63 0 157 47l376 208q6 0 11 -11t8 -26t5 -29t2 -22 q-10 -34 -72 -82t-143 -95t-164 -86t-135 -51h-20q-123 0 -196 68q-78 74 -114 198t-42 284z" />
<glyph unicode="M" horiz-adv-x="1648" d="M-18 80q104 144 156 302t72 326q19 160 19 325v17q-1 174 -3 348q8 12 24 22t34 15t35 1t27 -18q64 -112 114 -229l100 -234t103 -232t123 -225q7 -4 14 -4q22 0 47 42q33 56 68 156t72 231t76 262t78 248t77 189q28 58 63 60h2q34 0 63 -64q44 -188 72 -379t53 -383 t55 -385t80 -383q0 -14 -6 -33t-23 -29t-48 -6t-83 38q-18 158 -35 314t-37 310t-46 308t-62 308q-2 0 -5 1t-5 1q-30 -54 -54 -147t-50 -200t-57 -218t-73 -202t-100 -151t-136 -64q-8 -1 -16 -1q-41 0 -77 36q-43 43 -79 114t-68 158t-64 170t-65 149t-71 94q2 -80 3 -174 v-24q0 -83 -6 -169q-7 -99 -25 -196t-51 -184t-84 -158t-127 -117q-36 0 -55 12t-19 52z" />
<glyph unicode="N" horiz-adv-x="1416" d="M53 1578q-1 18 3 33t15 25t33 12q36 0 90 -58t121 -153t143 -216t156 -248t159 -248t152 -216t136 -153t109 -58q3 0 5 -1q36 0 57 53q22 56 28 152q2 34 2 72q0 69 -7 152q-11 128 -37 270t-66 289t-94 283q-8 24 -6 50t10 41t23 14t35 -29q52 -68 93 -174t73 -232 t51 -263t27 -268q5 -75 4 -145q0 -52 -2 -102q-6 -116 -26 -198t-55 -122q-23 -27 -53 -27q-15 0 -32 7q-96 26 -178 94t-153 160t-135 201t-126 217t-125 208t-131 176q-14 -74 -15 -175v-25q0 -89 6 -187q7 -111 20 -227t26 -222t24 -195t15 -147q-42 -29 -70 -29 q-7 0 -13 2q-31 9 -47 48t-19 103q-1 27 -1 57q0 40 2 85q-6 58 -12 146t-9 190t-6 212t-4 213q0 52 -0.5 99.5t0.5 91.5q1 88 5 148q-18 24 -44 47t-54 45t-55 43t-47 45q0 16 -1 34z" />
<glyph unicode="O" d="M58 644q4 76 9 179t18 213t38 219t67 199t105 151t153 75h10h8q67 0 129 -60q65 -64 117 -175t88 -255t48 -297q5 -66 5 -131q0 -87 -9 -173q-16 -151 -64 -275t-135 -209t-217 -107q-74 0 -131 32t-98 85t-68 121t-43 140t-23 142t-7 126zM185 570q3 -128 30 -227 t79 -156q46 -50 117 -50q10 0 21 1q88 22 150 90t99 164t51 213q10 82 10 166q0 36 -2 72q-6 121 -30 237t-65 212t-96 162t-121 86h-4q-30 0 -64 -55q-36 -59 -68 -160t-58 -230t-39 -263q-11 -109 -11 -214q0 -24 1 -48z" />
<glyph unicode="P" horiz-adv-x="1488" d="M20 1540q4 18 37 31t81 22t106 14t112 10t98 10t66 13q2 20 4 52t11 60t27 49t48 21q38 0 48 -22t10 -52t3 -60t29 -48q40 -14 106 -18t144 -9t160 -17t153 -43t124 -86t75 -147q-2 -62 -37 -119t-91 -107t-127 -95t-143 -84t-142 -73t-122 -62q0 -92 10 -183t22 -183 t21 -185q7 -76 7 -154v-35q-46 -14 -73 -14q-9 0 -16 2q-27 6 -36 39q-7 25 -7 64q0 13 1 28q1 25 1 55q0 40 -2 88q-4 84 -22 195t-66 247q-46 -10 -102 -32t-108 -32q-82 24 -100 46t4 42t69 38t96 32t85 25t36 17q0 18 -6 73t-16 126t-24 149t-29 143t-32 107t-31 42 q-60 0 -114 -16t-105 -34t-96 -34t-87 -16q-10 2 -20 18t-18 36t-14 39t-8 27zM656 1530q-2 -34 -2 -67q0 -66 8 -129q12 -94 31 -172t38 -135l29 -87q322 98 464 200q124 89 124 165q0 11 -3 22q-21 85 -198 141t-491 62z" />
<glyph unicode="Q" horiz-adv-x="1160" d="M20 618q0 62 7 163t29 217t64 233t112 211t172 152q95 54 228 54h18q120 -14 208 -99t145 -211t82 -280q21 -128 21 -255q0 -26 -1 -51q-5 -152 -39 -286t-98 -220q10 -58 44 -100t78 -72t90 -50t82 -38t53 -35t5 -39q0 -36 -12 -55t-50 -15l-396 302q-54 -30 -92 -49 t-74 -31t-76 -17t-98 -5q-128 0 -222 45t-156 123t-93 183t-31 225zM136 743q-3 -41 -3 -82q0 -104 19 -200q26 -133 95 -217t186 -103q23 -4 48 -4q103 0 243 63q-18 12 -56 34t-84 51t-95 62t-89 65t-66 62t-26 52q0 38 17 60t51 22l488 -308q82 96 117 227q31 118 31 243 v29q-4 141 -39 279t-92 246t-130 173q-71 63 -146 63h-5q-11 1 -22 1q-76 0 -146 -62q-80 -71 -143 -189t-103 -268t-50 -299z" />
<glyph unicode="R" horiz-adv-x="1408" d="M76 1364q-1 15 -1 29q0 75 35 135q42 72 116 122t172 79t202 35q27 2 54 2q76 0 151 -13q101 -17 180 -57t127 -104t48 -152q0 -82 -44 -183t-110 -198t-143 -180t-143 -127q20 -20 78 -61t133 -93t157 -112t149 -119t109 -113q38 -49 38 -87v-7q0 -24 -5 -40t-43 -16 q-68 36 -141 96t-150 128t-157 134t-164 112t-171 63q-31 6 -63 6q-56 0 -114 -19q0 -60 18 -130t40 -143t41 -145t21 -134q2 -24 -14 -40t-38 -21t-47 2t-43 29zM232 1416q8 -32 17 -109t22 -171t32 -189t49 -163q26 -10 56 -10q34 0 73 13q73 25 147 79t145 129t123 156 t79 159q19 54 19 99q0 20 -4 39q0 58 -37 94t-90 56t-112 27t-103 7t-115 -12t-138 -39t-115 -68t-48 -97z" />
<glyph unicode="S" horiz-adv-x="1208" d="M28 1072q-1 10 -1 21q0 54 33 122q40 81 114 163t174 159t211 131t226 78q60 13 117 12q52 0 102 -10q40 -2 60 -40t20 -80q-2 -4 -9 -11t-11 -9q-72 23 -149 23q-23 0 -46 -2q-101 -9 -197 -44t-184 -94t-154 -128t-105 -146t-41 -149q12 -86 84 -144t175 -102t220 -77 t221 -67t178 -74t90 -96q28 -58 28 -111q0 -25 -6 -50q-20 -75 -82 -135t-156 -104t-202 -69t-220 -30q-24 -1 -48 -1q-85 0 -161 14q-97 18 -168 61t-97 113q-12 20 -4 44t26 42t41 23t41 -13h4q2 0 3 1t3 1q4 -60 58 -95t134 -47q48 -7 102 -7q36 0 76 3q98 8 192 31 t174 59t125 80q44 43 44 93q0 52 -67 105q-176 66 -344 118t-302 110t-221 135t-101 193z" />
<glyph unicode="T" horiz-adv-x="1480" d="M-9 1448q3 32 43 56q94 2 206 4t228 6t231 11t215 19q18 12 44 45t60 56q30 20 68 20h10q44 -3 98 -61q72 10 164 16t187 12t186 14t163 22q42 0 66 -25t28 -55t-11 -56t-49 -28q-62 10 -167 13q-35 1 -71 1q-72 0 -147 -4q-113 -6 -214 -23t-155 -47q-6 -85 -6 -177 q0 -65 3 -133q7 -166 22 -329t30 -313t20 -262q1 -33 1 -62q0 -69 -8 -113q-10 -53 -39 -53q-5 0 -11 2q-20 12 -46 40t-52 63t-45 73t-25 70t6 53t52 23q-4 54 -6 142t-5 192t-7 218t-10 220t-14 196t-20 150q-39 3 -78 3q-73 0 -144 -10q-110 -15 -220 -36t-219 -40 t-219 -19q-14 -4 -27 -4q-21 0 -42 9q-35 15 -56 42t-18 59z" />
<glyph unicode="U" horiz-adv-x="1280" d="M86 953q2 183 12 362t14 329q8 22 21 42t39 20q28 0 39 -67t14 -177q2 -66 2 -143q0 -51 -1 -107t-1 -113q0 -86 2 -174q3 -147 14 -287t41 -250t81 -177t133 -67q88 0 142 75t86 200t45 286t18 329t8 331t15 293q0 16 15 32t37 23t44 3t38 -28q4 -200 15 -401t41 -402 t82 -403t140 -402q0 -84 -86 -84q-14 0 -24 4t-22 25t-26 65t-36 125t-53 204t-75 301q-16 -28 -24 -94t-21 -148t-34 -170t-63 -159t-109 -114q-56 -36 -139 -36q-15 0 -32 1q-126 0 -204 80t-120 213t-56 305q-12 150 -12 309v46z" />
<glyph unicode="V" horiz-adv-x="1560" d="M20 1604q0 40 27 50t77 10q74 -184 166 -358t195 -344t212 -339t215 -343q6 10 14 31t26 73t52 145t94 246t151 378t223 539q24 30 44 37t34 -5t18 -40q1 -9 1 -20q0 -21 -5 -48q-34 -66 -75 -173t-85 -237t-90 -273t-90 -281t-86 -262t-77 -215t-63 -140 q-22 -39 -39 -39q-4 0 -7 2q-12 0 -33 12t-61 63t-105 153t-165 280t-239 446t-329 652z" />
<glyph unicode="W" horiz-adv-x="1820" d="M-12 1668v8q4 6 13 17t19 20t18 16t10 7q84 -158 132 -335t86 -359t80 -361t114 -341q28 30 53 113t48 190t46 223t46 213t49 159t58 62q66 -24 127 -83t118 -137t109 -168t97 -175t82 -159t67 -118q26 32 53 114t54 191t55 234t57 244t60 221t63 165t67 75q6 2 12 2 q29 0 59 -50q-48 -112 -90 -247t-78 -281t-68 -296t-60 -293t-54 -271t-50 -228q-52 8 -77 30t-39 52t-21 66t-23 72q-38 80 -88 195t-112 234t-132 225t-148 166q-30 -72 -56 -167t-55 -220t-64 -282t-85 -351q-16 -26 -38 -40t-44 -14t-43 13t-35 41q-30 178 -83 379 t-110 410t-111 417t-88 402z" />
<glyph unicode="X" horiz-adv-x="1160" d="M-8 1604v10q0 12 7 28t19 30t26 23t28 9q24 -2 65 -43t91 -102t103 -133t101 -136l84 -112t52 -58q30 0 70 47t86 116t96 151t100 151t97 116t87 47q22 0 50 -7t32 -33q-20 -56 -62 -121t-96 -134t-112 -137t-110 -129t-93 -110t-57 -81q52 -94 107 -218t117 -247 t131 -232t149 -171q0 -38 -5 -56t-45 -18q-17 -8 -34 -8q-32 0 -62 27q-46 41 -90 117t-86 177t-84 201t-85 186t-85 134q-74 -132 -121 -260t-87 -244t-86 -214t-120 -172h-33t-30 5t-22 15t-9 32q30 46 72 130t85 183t85 201t74 184t50 135t14 53v15q0 54 -25 113 q-29 68 -76 136t-104 133t-110 119t-94 94t-55 58z" />
<glyph unicode="Y" horiz-adv-x="1100" d="M40 1592q0 34 13 62t47 28q28 -4 72 -42t97 -97t112 -131t118 -145t116 -138t105 -109q46 72 71 155t44 169t37 172t48 164q20 0 42 2t39 -2t29 -16t12 -42q-24 -108 -54 -238t-63 -270t-69 -284t-73 -282t-73 -263t-70 -225q-14 -40 -43 -55t-60 -9t-54 33t-25 71 q42 90 81 178t68 179t44 186q11 68 11 139q0 29 -2 58q-82 98 -164 188t-162 180t-154 184t-140 200z" />
<glyph unicode="Z" horiz-adv-x="1420" d="M190 1549q0 21 11 41t33 30q47 -3 91.5 -3t85.5 3q83 6 162 15t160 18t171 9q60 0 96 -18t36 -84q2 -14 2 -31q0 -45 -15 -108q-21 -87 -61 -194t-94 -226t-113 -235t-116 -220t-104 -183t-78 -123t-37 -40v-12q53 -11 110 -11q43 0 89 6q107 15 214 44t206 61t175 47 q39 8 71 8q29 0 51 -7q46 -14 46 -76q3 -7 3 -14q0 -22 -33 -44q-44 -28 -127 -54t-197 -48t-241 -40t-258 -34t-249 -26q-28 10 -46 30t-27 45t-6 53t19 52q52 76 118 177t136 215t137 236t120 243t85 234t32 211q-78 -4 -154 -14t-153 -16q-66 -5 -131 -5h-22 q-76 1 -154 19q-22 8 -33 28t-11 41z" />
<glyph unicode="[" horiz-adv-x="880" d="M32 1402q-6 122 7 196t57 78q64 -6 127 6t125 29t124 32t124 15q38 0 60 -23t22 -59q0 -28 -31 -48t-79 -35t-106 -26t-109 -19t-89 -16t-48 -16v-103t2 -124t5 -167t7 -233t10 -322t16 -431q18 -66 66 -91t109 -30t128 -1t125 -2t100 -33t52 -93q0 -12 -7 -28t-19 -30 t-26 -23t-28 -9q-58 32 -130 42t-145 14t-142 11t-120 31t-80 76t-23 146q10 152 0 326t-27 347t-34 332t-23 281z" />
<glyph unicode="\" horiz-adv-x="816" d="M31 1657q5 35 28 55t55 15t60 -55q84 -198 142 -408l116 -420t127 -415t175 -397q0 -2 2 -4v-4q0 -2 2 -2q16 -38 -1 -69t-47 -45t-64 -6t-52 48q-18 44 -47 132t-65 203t-77 248t-82 268t-81 264t-73 236t-58 183t-37 106q-28 32 -23 67z" />
<glyph unicode="]" horiz-adv-x="860" d="M38 1770q0 24 7 38t33 14q36 0 69 -21t61 -21q120 0 225 20t207 60h10q34 0 52 -24t18 -56q0 -70 -21 -138t-21 -142q0 -58 10 -98t24 -75t28 -74t20 -93q6 -40 4 -73t-4 -63t1 -59t19 -65v-740q0 -12 -13 -21t-30 -13t-33 -6t-24 -2q-6 0 -15 -1t-18 1t-17 7t-10 15 q-20 -30 -53 -41t-69 -14t-73 -6t-65 -19q-4 -2 -12 -11t-18 -19l-19 -19l-11 -11q-16 -6 -42 6t-52 31t-45 38t-21 25q-6 16 1 38t20 43t30 37t29 22q4 2 20 -9t20 -11q2 0 12 -1t16 -1q4 0 32 1t67 5t84 10t82 15t62 21t25 30v700q0 84 -19 164t-41 161t-41 163t-19 166 q-10 0 -32 1t-48 3t-49 2h-31q-4 0 -15 -3t-25 -7t-26 -7t-14 -3q-34 0 -76 3t-79 17t-62 39t-25 71z" />
<glyph unicode="^" horiz-adv-x="740" d="M24 640q12 66 48 146t87 154t111 132t118 82q30 0 78 -47t92 -111t76 -128t32 -98q0 -20 -12 -32t-28 -18t-36 -8t-34 -2q-42 0 -68 26t-43 63t-30 79t-31 74q-2 0 -5 1t-5 1q-28 0 -47 -25t-36 -64t-34 -83t-38 -83t-48 -64t-67 -25h-20t-27 3t-23 9t-10 18z" />
<glyph unicode="_" horiz-adv-x="880" d="M38 60q36 52 114 64t180 7t220 -15t232 2q38 0 55 -7t17 -47t-48 -60t-123 -27t-165 -5t-174 9t-149 13t-91 6q-28 0 -48 15t-20 45z" />
<glyph unicode="`" horiz-adv-x="344" d="M40 1456q0 36 11 55t51 19q14 -24 41 -49t56 -52t55 -53t37 -51t1 -47t-52 -38q-32 38 -60 59t-52 41t-46 45t-42 71z" />
<glyph unicode="a" horiz-adv-x="1152" d="M20 250q-7 70 -7 134q0 115 23 208q36 146 108 250t173 172t212 108t224 56t211 16q8 4 27 6t36 0t29 -11t8 -25l58 -1108q4 -24 -8 -40t-32 -20t-46 6t-52 38l-12 838q-34 -70 -84 -159t-110 -182t-127 -182t-137 -159t-139 -114t-134 -45h-3q-64 0 -118 49 q-56 50 -100 164zM120 349q12 -79 66 -147q21 -29 55 -29q20 0 43 10q64 27 142 101t163 180t160 215t131 208t80 161q-61 23 -129 23q-15 0 -29 -1q-84 -6 -169 -39t-166 -88t-149 -124t-118 -148t-71 -161q-13 -52 -13 -103q0 -29 4 -58z" />
<glyph unicode="b" horiz-adv-x="1240" d="M81 324q-2 14 -2 33q0 38 7 97q4 54 11 145t15 205t17 242t17 254t14 243t8 207q2 14 8 35t16 40t24 33t32 14q10 0 25 -3t15 -19q-4 -132 -14 -264t-21 -267t-20 -272t-11 -281q82 84 150 155t140 127t157 95t201 61q154 0 238 -74t84 -238q0 -116 -50 -219t-132 -190 t-190 -158t-225 -126t-234 -94t-219 -59q-50 28 -57 64q-2 8 -2 17q0 32 19 79q19 -2 40 -2q62 0 137 18q101 24 206 73t207 118t182 151t129 171t49 177q0 96 -37 128t-127 32q-18 2 -35 2q-69 0 -130 -26q-77 -32 -145 -88t-125 -131t-105 -156t-87 -160t-69 -145 q-28 -46 -52 -71t-39 -20t-20 47z" />
<glyph unicode="c" horiz-adv-x="840" d="M38 424q0 70 28 157t77 178t115 178t141 155t156 109t159 41q20 0 37 -9t28 -24t11 -36t-14 -45q-130 -60 -239 -132t-188 -164t-124 -206t-47 -258q0 -40 16 -78t43 -67t64 -47t77 -18q64 0 125 33t116 72t103 72t86 33q19 -23 19 -51q0 -11 -3 -22q-10 -41 -45 -83 t-87 -82t-111 -71t-116 -48q-46 -14 -82 -14q-9 0 -17 1q-82 0 -143 42t-102 105t-62 138t-21 141z" />
<glyph unicode="d" horiz-adv-x="1088" d="M43 312q-3 27 -3 54q0 70 20 147q28 107 86 210t141 195t179 157t202 95q64 18 126 18q42 0 84 -8q8 0 16 8t12 56t7 150t3 288q0 28 11 55t31 44t45 19t53 -18q-4 -72 -12 -135t-15 -130t-13 -143t-8 -174q38 -16 49 -41t6 -53t-21 -56t-34 -50q-10 -126 -18 -263 t-12 -275t-5 -275v-54q0 -108 3 -211q-12 -34 -34 -55t-44 -23t-40 16t-22 62l12 534q-38 -30 -88 -75t-103 -94t-107 -96t-105 -84t-93 -58q-35 -18 -62 -18q-5 0 -10 1q-112 38 -169 112t-68 168zM170 295q16 -71 78 -119q13 -7 29 -8q19 0 43 11q44 19 96 59t111 96 t116 116t110 116t95 98q16 68 20 103q3 28 3 54v13q-1 32 -4 78t-3 136q-40 31 -91 31q-11 0 -22 -1q-65 -8 -137 -47t-144 -104t-133 -144t-106 -166t-61 -169q-8 -41 -8 -79t8 -74z" />
<glyph unicode="e" horiz-adv-x="944" d="M-70 782q28 0 54 -7t53 -14l54 -14t55 -7q14 0 32 33t45 82t66 106t93 106t126 82t166 33q42 0 81 -17t68 -46t46 -66t17 -77q0 -90 -27 -147t-73 -91t-107 -51t-131 -27t-145 -19t-147 -27q-16 -62 -15 -120q0 -38 6 -74q17 -92 63 -161t114 -109t142 -41h3q72 0 144 44 q73 45 131 147q18 0 27 -11t12 -26t3 -32t-2 -31q-92 -126 -187 -173q-77 -38 -149 -38q-17 0 -34 2q-88 11 -164 71t-132 149t-87 196q-27 95 -27 189v24q-24 24 -54 34t-57 22t-45 35t-18 71zM296 732q-2 6 32 8t86 9t113 18t116 34t95 59t48 92q0 26 -13 43t-33 27 t-44 15t-44 5q-88 -6 -151 -39t-105 -80t-66 -98t-34 -93z" />
<glyph unicode="f" horiz-adv-x="1088" d="M-172 940q26 12 70 20t97 17t109 17t105 17t86 21t53 28q10 66 19 150t25 170t43 169t71 150t110 111t162 52q40 0 107 -28t130 -71t109 -94t46 -99q0 -30 -24 -41t-46 -11q-42 0 -71 35t-56 76t-60 76t-85 35q-94 -4 -153 -73t-92 -166t-45 -202q-10 -90 -10 -157v-22 q80 4 162 20t165 37t167 44t166 39q50 0 79 -24t35 -54t-12 -60t-62 -42q-70 -8 -168 -16t-199 -24t-191 -44t-142 -76q0 -200 18 -396t62 -404q-6 -40 -24 -68t-42 -41t-54 -7t-60 36q7 92 7 185q0 123 -12 248q-21 221 -55 427q-42 0 -98 -11t-116 -25t-119 -27t-107 -17 h-10q-50 0 -72 38q-19 32 -19 69q0 6 1 13z" />
<glyph unicode="g" horiz-adv-x="1040" d="M26 326q10 168 75 315t159 260t204 187t208 99q43 11 81 11q49 0 91 -18q74 -32 96 -130q28 -414 41 -710q11 -257 11 -445v-57q-2 -206 -19 -331t-50 -197t-82 -102t-113 -42q-14 -1 -29 -1q-48 0 -98 15q-65 20 -120 58t-96 89t-57 109q-9 31 -9 62q0 27 7 55 q14 59 70 113q22 0 51 -9t41 -31q-41 -47 -41 -98v-11q5 -57 40 -104t90 -78t111 -31q12 -3 24 -3q46 0 77 45q39 56 60 155t27 228q4 97 4 196v67q-2 134 -9 261t-14 221t-10 142t5 26q-40 -46 -84 -109t-92 -132t-103 -136t-117 -120t-134 -86t-154 -33q-50 0 -78 36 t-42 85t-18 99t-4 80zM166 344q-3 -32 -3 -59q0 -63 17 -92q20 -34 55 -34q8 0 16 2q47 9 110 61t130 129t132 171t115 187t79 178q24 70 24 124q0 11 -1 21q-32 5 -64 5q-81 0 -162 -32q-114 -45 -210 -138t-161 -227t-77 -296z" />
<glyph unicode="h" horiz-adv-x="1024" d="M60 116q58 380 61 784q1 81 1 163q0 328 -10 673q18 42 42 59t46 8t39 -44t21 -99q0 -60 2 -168t3 -237t1 -265t-4 -254t-14 -204t-28 -112q48 80 89 169t80 175t79 164t85 135t101 90q50 29 111 29h15q7 1 14 1q64 0 104 -51q44 -56 63 -153q16 -84 17 -190 q0 -17 -1 -34q-3 -127 -19 -262t-43 -266t-59 -235h-29t-32 3t-25 12t-10 25q8 102 26 215t36 223t30 210q10 80 10 146q0 16 -1 32q-3 78 -26 126t-75 56q-38 0 -81 -42t-85 -106t-80 -141t-70 -148t-54 -127t-30 -76t-28 -71t-43 -109t-42 -109t-27 -71q-26 -36 -53 -43 t-50 8t-39 45t-18 66z" />
<glyph unicode="i" horiz-adv-x="540" d="M92 392l28 840q16 66 44 69t53 -26t38 -74q6 -22 6 -39q0 -19 -7 -32q3 -31 3 -70q0 -33 -2 -72q-5 -86 -13 -183t-15 -197t-7 -186t11 -148t38 -84q12 -9 27 -9q21 0 49 16q49 29 125 125q38 -29 38 -71q0 -7 -1 -13q-7 -50 -40 -99t-81 -88t-86 -51q-21 -4 -39 -4 q-48 0 -78 30q-41 42 -62 109t-25 140t-4 117zM150 1740q0 34 18 58t52 24q14 0 35 -3t42 -10t36 -19t19 -30q3 -18 3 -34q0 -40 -19 -62q-26 -30 -63 -30t-74 28t-49 78z" />
<glyph unicode="j" horiz-adv-x="456" d="M-530 -914q0 10 9 27t21 32t26 26t24 11q6 -16 22 -66t42 -108t62 -114t81 -84q32 -20 70 -20q14 0 30 3q55 11 119 87q88 170 133 346t62 352q14 142 14 285q0 33 -1 67q-4 176 -11 346t-12 332q-1 39 -1 76q0 122 12 236v6q0 41 25 52q27 12 57 0t51 -41q13 -17 13 -37 q0 -14 -6 -28q-22 -112 -22 -271t6 -344t9 -385v-54q0 -172 -16 -339q-19 -193 -69 -368t-148 -311q-70 -106 -155 -134q-36 -12 -71 -12q-49 0 -98 23q-84 39 -158 143t-120 266zM102 1516q0 34 18 58t52 24q14 0 35 -3t42 -10t36 -19t19 -30q2 -18 2 -32q0 -45 -22 -67 q-28 -27 -66 -27h-5q-41 2 -76 31t-35 75z" />
<glyph unicode="k" horiz-adv-x="1112" d="M58 98q2 64 13 126t23 124t20 124q6 50 6 102v26q-10 20 -15 49t-1 56t17 48t39 27q28 48 42 125t19 170t5 195t2 197t8 178t24 139q32 0 58 -2t42 -38q0 -98 -6 -218t-14 -249t-14 -257t-6 -240q66 32 138 70t139 85t121 107t82 138q26 0 61 -20t41 -50q0 -2 -1 -3 t-1 -3v-4q-108 -162 -258 -275t-342 -165q18 -158 102 -267t205 -167t263 -65q19 -1 37 -1q122 0 237 40q26 0 39 -12t15 -30t-3 -39t-15 -39q-62 -42 -144 -56q-50 -9 -103 -9q-34 0 -70 4q-91 9 -184 40t-176 80t-150 113t-105 140q-10 -10 -15 -43t-8 -75t-6 -89t-7 -87 t-11 -67t-21 -31q-16 -4 -37 5t-40 25t-32 34t-13 34z" />
<glyph unicode="l" horiz-adv-x="304" d="M95 436q3 220 11 452t14 452q4 165 4 301v87q2 38 11 66t26 41t42 8t61 -35q2 -60 2 -127t-2 -142q-4 -149 -10 -312t-13 -333t-12 -332t-5 -308t8 -262q-29 -41 -61 -41q-5 0 -11 1q-38 8 -56 96q-10 134 -10 302q0 42 1 86z" />
<glyph unicode="m" horiz-adv-x="1620" d="M50 1234q10 48 35 79q24 30 55 30h2q32 -1 58 -63l20 -540q8 22 17 64t24 93t38 104t57 95t82 66q41 21 96 20h18q50 0 88 -29t66 -75t48 -103t34 -113t24 -105t18 -79q12 0 33 35t50 86t66 112t79 112t90 86t100 35q30 4 56 4q97 0 155 -57q73 -73 96 -213 q13 -79 13 -173q0 -74 -8 -158q-18 -191 -60 -407q-10 -78 -39 -110q-24 -27 -50 -27q-5 0 -9 1q-30 6 -51 42q-14 24 -14 59q0 16 3 35q38 168 63 325q21 131 21 237q0 21 -1 41q-5 121 -44 192q-36 65 -114 65h-13h-12q-96 -76 -155 -171t-104 -200t-85 -215t-96 -214 q-14 -28 -38 -38t-46 -1t-39 36t-17 71q8 70 11 153q2 42 1.5 83.5t-1.5 83.5q-3 84 -12 162t-25 139t-39 98t-53 37h-4q-45 0 -80 -42q-36 -44 -65 -116t-52 -165t-43 -189t-38 -188t-39 -162t-45 -111q-21 -36 -48 -36q-4 0 -8 1q-8 2 -23 17t-17 23q-6 116 -10 258 t-7 288t-4 287t-1 259q-12 24 -12 53q0 16 4 33z" />
<glyph unicode="n" horiz-adv-x="1032" d="M59 261v63q0 95 2 192q3 130 12 262t27 262q-6 20 9 47t37 38t43 -5t27 -80q0 -38 1 -56t1 -38t1 -51t1 -95q30 48 59 111t70 120t103 94q59 35 148 35h10h20q102 0 166 -38q70 -42 107 -119t48 -184q9 -91 10 -194q0 -19 -1 -38q-2 -125 -10 -265t-10 -282 q-12 -26 -35 -36t-46 -5t-41 22t-20 47q2 114 11 227t14 217q3 58 3 112q0 43 -2 83q-4 91 -25 159t-66 109t-123 45q-92 -26 -157 -99t-109 -171t-71 -209t-45 -212t-31 -183t-29 -122h-18t-36 -1t-36 -2t-18 1q0 114 -1 239z" />
<glyph unicode="o" horiz-adv-x="1020" d="M58 358q2 106 30 227t80 238t126 221t166 176q26 -6 33 -19t7 -27t2 -28t18 -26q134 -4 225 -54t142 -130t64 -179q5 -42 5 -84q0 -59 -10 -119q-18 -104 -66 -203t-120 -176t-166 -125t-204 -50q-78 0 -139 29t-104 78t-66 114t-23 137zM180 370q0 -94 52 -153t142 -59 q11 -1 21 -1q94 0 176 49q91 54 154 140t92 191q19 69 19 134q0 34 -5 67q-15 96 -80 168t-191 94q-66 0 -119 -34t-95 -88t-73 -123t-52 -139t-31 -135t-10 -111z" />
<glyph unicode="p" horiz-adv-x="1340" d="M58 786q0 54 20 104t56 88t84 61t104 23q162 -2 329 -51t305 -134t229 -199t97 -248q0 -92 -38 -161t-102 -119t-146 -81t-168 -48t-172 -21q-43 -2 -82 -2t-74 2q-16 -14 -22 -67t-7 -132q-1 -39 -1 -83t1 -92t1 -96.5t-1 -97.5q-1 -98 -6 -191t-18 -164t-37 -115 t-62 -44q-42 30 -76 85t-45 103q-4 17 -4 31q0 27 13 44q10 13 30 13q21 0 54 -14q10 88 20 200t15 225q3 71 3 138q0 41 -1 80q-3 105 -17 177q-10 6 -32 20t-48 30t-49 30t-31 20q-28 20 -28 45v63q30 0 52 -7t42 -18t42 -23t52 -20v740q0 26 20 38t44 10t42 -14t14 -34 q8 -24 12 -77t5 -122t2 -149t2 -157t5 -144t14 -111q56 4 125 10t139 18t137 32t119 53t85 81t37 116q0 70 -36 136t-95 125t-135 109t-155 86t-154 56t-133 20q-94 0 -150 -29t-84 -82t-35 -127q-5 -58 -5 -125v-39q-2 0 -5 -1t-5 -1q-32 0 -50 27t-27 65t-12 76t-3 60z " />
<glyph unicode="q" horiz-adv-x="1120" d="M60 380q0 98 31 202t91 188t148 138t202 54q40 0 86 -3t91 -13t85 -30t66 -56q-41 4 -83 4q-73 0 -150 -13q-121 -21 -220 -78t-163 -150t-64 -223q0 -46 9 -103t31 -107t61 -87t99 -43q110 18 206 104t170 206t122 260t62 270q-6 42 4 61t28 22t42 -5t46 -18 q5 -47 5 -99q0 -65 -8 -138q-15 -131 -36 -267t-39 -267q-15 -107 -15 -198q0 -20 1 -39q104 22 192 22q58 0 108 -10q126 -24 208 -88t119 -158q34 -87 34 -182v-16q-3 -104 -45 -209t-119 -190t-189 -141t-256 -62q-128 14 -189 84t-80 178q-11 62 -11 134q0 53 6 112 q14 138 38 286t49 300t27 288q-36 -58 -85 -122t-109 -120t-131 -95t-151 -45q-84 0 -145 45t-101 114t-59 150t-19 153zM863 -642q3 -74 22 -140t58 -114t105 -64q9 -1 18 -1q51 0 119 27q81 32 157 98t132 162t62 218q-8 88 -47 151t-96 102t-125 53q-38 8 -76 8 q-30 0 -59 -5q-67 -11 -126 -46t-95 -95q-12 -28 -25 -84t-20 -126q-5 -49 -5 -100q0 -22 1 -44z" />
<glyph unicode="r" horiz-adv-x="896" d="M56 1166q43 19 72 19q15 0 27 -5q35 -14 51 -55t20 -99q3 -46 3 -93v-24q-1 -59 -1 -111t12 -78q36 138 104 244t161 168t208 74q22 2 45 2q95 0 202 -40q-2 -2 -3 -14t-1 -25t-1 -23t-3 -10q-188 0 -313 -58t-199 -183t-99 -322q-17 -133 -17 -304q0 -82 4 -173 q-10 -22 -28 -36t-38 -17t-37 5t-25 32q-20 58 -29 142t-14 182t-9 206t-14 214t-28 204t-50 178z" />
<glyph unicode="s" horiz-adv-x="1120" d="M60 590q0 132 60 248t160 202t229 136t267 50q20 2 61 -5t77 -22t52 -39t-14 -56q-29 4 -58 4q-53 0 -110 -12q-88 -18 -173 -55t-162 -91t-135 -114t-90 -123q-30 -59 -30 -113v-7q2 -57 46 -102t140 -71q50 -11 107 -10h34q77 4 155 13t150 18q46 6 86 6q22 0 43 -2 q57 -5 91 -28t34 -77q-32 -54 -103 -111t-162 -105t-194 -81t-200 -41q-26 -2 -51 -2q-68 0 -126 16q-80 22 -124 84q10 32 32 57t56 25q30 -16 81 -22q34 -4 72 -4q19 0 38 1q59 3 124 15t122 30t104 43t71 55q-142 -4 -254 -4h-71q-135 2 -225 30t-140 90t-70 174z" />
<glyph unicode="t" horiz-adv-x="784" d="M-112 1099q-2 27 17 50t71 27q18 -14 67 -18t111 -4t124 2q31 1 57.5 1t48.5 -1l-1 27t-3 63t-4 73t0 57q2 30 2 76t2 97t9 103t25 93t47 67t77 26q0 -58 -2 -132t-5 -152t-5 -153t-2 -135v-90q68 4 113 5h30q29 0 56 -1q41 -2 88 -4t119 -4q20 -4 21 -26t1 -34 q-30 -40 -74 -54t-92 -14t-96 5q-40 4 -74 4h-14q-40 -1 -67 -17t-31 -60q-24 -76 -25 -169v-27q0 -80 5 -165q6 -99 10 -195q1 -24 1 -47q0 -69 -9 -128q-12 -79 -49 -134t-113 -71q-5 82 -5 158q0 47 2 91q5 115 13 227t17 228t9 252l-408 28q-24 2 -43 25t-21 50z" />
<glyph unicode="u" horiz-adv-x="1136" d="M78 469v37q0 92 8 187q10 115 24 231t18 220q10 26 36 42t53 16t46 -17t17 -55q-6 -82 -20 -188t-26 -217t-18 -217q-2 -37 -2 -72q0 -63 7 -116q11 -82 43 -131q30 -45 87 -46q5 0 9 1q66 10 123 61t104 127t84 168t63 185t39 180t15 151q10 50 15 86t17 57t36 25 q6 1 14 1q22 0 58 -9q4 -106 4 -214v-71v-38q0 -124 11 -245q13 -140 52 -273t125 -255q-4 -16 -7 -33t-11 -29t-22 -19t-40 -1q-44 0 -76 30t-56 78t-40 108t-28 118t-22 108t-18 80q-6 -20 -27 -67t-53 -105t-74 -121t-90 -112t-101 -77q-41 -22 -84 -22q-12 0 -25 2 q-102 28 -159 94t-82 157t-27 200z" />
<glyph unicode="v" horiz-adv-x="1120" d="M38 1150q0 32 16 48t38 19t47 -7t41 -30q68 -222 159 -428t201 -412q32 48 64 122t64 158t68 172t77 164t89 131t108 77q34 0 43 -23t9 -53q-144 -246 -257 -504t-165 -544q-37 -37 -64 -37h-4q-28 3 -72 37q-36 132 -107 270t-145 279t-135 282t-75 279z" />
<glyph unicode="w" horiz-adv-x="1660" d="M32 1100q0 20 15 31t35 13t40 -3t30 -19q22 -86 45 -213t53 -258t70 -249t94 -188q78 76 110 176t45 210t18 223t27 215q4 38 15 62t57 24q4 1 9 1q22 0 47 -34q30 -41 64 -111t72 -162t80 -186t88 -181t96 -147q32 78 49 156t29 156t25 155t38 152t67 148t114 143 q36 26 69 37t56 8t34 -19t3 -42q-126 -124 -196 -264t-101 -291t-33 -309v-63q0 -126 6 -253q-12 -20 -30 -24t-38 2t-39 17t-33 21l-446 786q-10 -100 -20 -218t-39 -232t-85 -214t-158 -162q-36 0 -78 71t-85 181t-82 243t-70 256t-49 220t-18 135z" />
<glyph unicode="x" horiz-adv-x="1032" d="M-17 1112q5 30 25 47t51 16t67 -27q42 -66 65 -107t46 -79t58 -82t105 -112q12 22 34 62t52 90t66 101t75 93t80 69t81 27q12 0 28 -4t30 -11t21 -18t5 -25q-46 -72 -106 -134t-114 -125t-91 -133t-37 -156v-8q56 -52 102 -114t95 -123t107 -115t138 -90q36 -22 42 -47 t-8 -47t-43 -37t-61 -15q-34 0 -73 29t-79 72t-78 93t-72 93t-61 72t-45 29q-62 -58 -99 -135t-58 -164t-29 -177t-12 -170q-30 -46 -61 -50t-57 16t-40 53q-10 23 -10 45q0 9 2 18q0 104 33 197t72 185t71 188t32 206q-34 44 -89 99t-108 113t-93 118t-46 112 q-14 25 -14 49q0 6 1 13z" />
<glyph unicode="y" horiz-adv-x="996" d="M0 898q0 12 9 29t21 32t26 25t24 8q84 -130 163 -261t152 -248t138 -213t123 -154q26 108 50 245t42 283t32 289t24 261q76 0 106 -30t34 -116q-18 -190 -47 -400t-69 -468t-88 -577t-104 -727q-38 -42 -72 -48t-57 13t-33 54q-6 19 -6 40q0 16 4 33q26 126 46 220 t34 169t25 137t18 123t12 128t9 151q-26 36 -77 114t-114 178t-131 210t-127 210t-105 177t-62 113z" />
<glyph unicode="z" horiz-adv-x="1032" d="M53 1090q5 20 23 26q68 12 128 23t117 20t114 14t119 5q42 0 97 -1t106 -15t86 -47t35 -95q-14 -88 -59 -160t-108 -135t-135 -123t-141 -123t-126 -136t-89 -163q20 -8 41 -11t54 1t84 16t131 35t195 57t275 82q88 0 110 -18t-4 -46t-92 -64t-154 -72q-72 -26 -150 -54 t-159 -52t-163 -39t-160 -15q-30 0 -61 11t-55 31t-40 47t-16 59q0 72 50 148t126 154t164 154t164 149t126 139t50 124q-114 14 -226 14q-37 0 -75 -2q-149 -6 -293 -34q-36 0 -58 17t-29 38t-2 41z" />
<glyph unicode="{" horiz-adv-x="800" d="M117 1363q3 103 49 226t121 239t171 209t200 137q28 14 41 8t14 -24t-10 -42t-31 -44q-80 -52 -163 -146t-149 -202t-104 -214t-27 -184t83 -111t224 7q16 -20 -3 -57t-58 -81t-86 -91t-84 -88t-55 -71t2 -42t86 1t198 57q-26 -52 -61 -140t-61 -189t-35 -204t20 -185 t103 -133t212 -45q30 -16 32 -39t-12 -44t-39 -37t-51 -18q-128 28 -206 89t-119 139t-51 167t-1 174t29 159t40 124q-30 0 -66 3t-67 16t-52 42t-21 81q0 30 30 67t66 77t66 82t30 84q-112 4 -160 72t-45 171z" />
<glyph unicode="|" horiz-adv-x="380" d="M97 1134q-3 138 1 267t22 239q8 20 23 39t32 22t34 -15t31 -70q-4 -182 -8 -373t1 -383t24 -377t63 -355q18 -48 -4 -82t-56 -44t-66 8t-34 70q-2 106 -10 233t-19 263t-21 278t-13 280z" />
<glyph unicode="}" horiz-adv-x="712" d="M48 -197q-10 37 10 95q84 -24 149 12t109 107t67 166t20 192t-33 183t-88 138q30 64 52 101t38 60t28 39t20 40q-34 26 -81 50t-91 54t-78 71t-40 101q66 78 101 178t44 203t-4 201t-41 175t-69 124t-87 47q10 34 23 37t41 5q104 -22 164 -104t75 -211t-13 -301 t-100 -372q30 -28 79 -44t95 -37t82 -53t40 -90q0 -40 -19 -70t-41 -60t-41 -64t-19 -80q36 -88 52 -192t11 -208t-30 -200t-73 -169t-119 -117t-165 -44q-58 0 -68 37z" />
<glyph unicode="~" horiz-adv-x="872" d="M36 733q2 53 25 114t64 112t95 57q46 -12 96 -43t99 -68t94 -74t82 -60t62 -25t35 30q22 24 24 54t-5 64t-17 70t-10 72q44 22 73 9t44 -43t21 -69t6 -69q2 -106 -17 -162t-51 -75t-75 -9t-92 36t-101 61t-102 66t-94 51t-76 16q-30 -14 -44 -38t-20 -50t-8 -50t-10 -38 t-25 -16t-51 18q-24 6 -22 59z" />
<glyph unicode="&#xa1;" horiz-adv-x="376" d="M53 1353q0 -33 27.5 -46.5t59.5 -13.5q17 0 38.5 9.5t39.5 24.5t28.5 34t4.5 37q-11 40 -41.5 47.5t-63.5 -4t-60 -36.5t-33 -52zM70 285q0 -75 6.5 -173.5t21.5 -231.5h10q30 0 63 12t33 44q17 131 18 233.5t-2 188.5t-9.5 160t-6.5 148t9.5 153t37.5 173 q-38 35 -67 41.5t-50 -6.5t-34 -41t-19.5 -60t-8.5 -65t0 -55q7 -83 8 -145.5t-2.5 -121.5t-5.5 -119t-2 -135z" />
<glyph unicode="&#xa3;" horiz-adv-x="1640" d="M40 660q0 36 54 53t126 25t141 11t99 11q-10 136 20 262t89 232t140 188t170 128t181 52t172 -38q90 -56 112 -107t5 -79t-60 -24t-81 58q-54 50 -117 55t-126 -28t-122 -97t-104 -152t-72 -193t-27 -217h209t227 20q28 2 45 -15t17 -40t-21 -46t-69 -31l-368 -28 q-44 -8 -62 -65t-21 -131t1 -148t4 -114q104 32 211 50t214 18t213 -21t210 -69h10q18 68 43 81t48 -8t38 -63t13 -82t-28 -68t-84 -20q-94 38 -206 67t-238 34t-262 -22t-274 -101q-26 -6 -53 -6t-45 11t-23 34t11 63q18 62 36 127t29 131t12 132t-17 130q-94 -18 -186 -20 t-194 0q-12 8 -26 28t-14 32z" />
<glyph unicode="&#xa8;" horiz-adv-x="696" d="M46 1360q0 34 24 53t58 19q20 0 42 -12t40 -30t29 -39t11 -39q0 -24 -5 -55t-35 -31q-24 0 -53 11t-54 30t-41 43t-16 50zM414 1360q0 34 24 53t58 19q20 0 42 -12t40 -30t29 -39t11 -39q0 -24 -5 -55t-35 -31q-24 0 -53 11t-54 30t-41 43t-16 50z" />
<glyph unicode="&#xad;" horiz-adv-x="792" d="M40 632q4 24 16 44t24 24q12 0 40 2t86 4t158 5t256 9q68 0 98 -21t28 -48t-35 -50t-91 -25l-540 -16q-28 6 -36 27t-4 45z" />
<glyph unicode="&#xaf;" horiz-adv-x="912" d="M46 1302q36 52 114 64t180 7t220 -15t232 2q38 0 55 -7t17 -47t-48 -60t-123 -27t-165 -5t-174 9t-149 13t-91 6q-28 0 -48 15t-20 45z" />
<glyph unicode="&#xb4;" horiz-adv-x="344" d="M14 1277q-10 21 1 45t40 50t60 52t61 51t44 47q44 0 56 -19t12 -53q-22 -44 -46 -69t-50 -44t-56 -40t-66 -57q-46 16 -56 37z" />
<glyph unicode="&#xb8;" horiz-adv-x="736" d="M63 -645q1 15 5 34t4 35q22 18 57 24t77 8t89 4t93 9t88 24t76 51q34 96 18 145t-61 66t-110 13t-126 -15t-110 -18t-61 5q6 72 4 106t-5 61t-7 61t-4 106q0 36 26 61t60 25q36 0 52 -18t22 -44t4 -58t-4 -58t-1 -44t13 -18q148 0 233 -16t127 -42t52 -56t10 -58 q20 -108 1 -185t-65 -128t-113 -80t-140 -40t-148 -9t-137 14q-14 0 -17 10t-2 25z" />
<glyph unicode="&#xbf;" horiz-adv-x="1208" d="M54.5 383q-14.5 112 41.5 230q35 72 94.5 117.5t144 75.5t193.5 50.5t244 45.5q0 37 -2 80.5t-3 85t-1 75.5t2 55q6 80 21 118.5t33.5 38.5t35.5 -37t25 -108q4 -27 4 -84.5t-1 -121t-3 -122.5t-4 -90q-103 -35 -208 -54.5t-194 -40t-155.5 -51.5t-94.5 -91 q-52 -106 -25.5 -200t130.5 -152t283.5 -67.5t432.5 55.5q17 -33 13.5 -58t-19 -39.5t-36.5 -22t-38 -7.5q-306 -31 -501.5 6.5t-296.5 119t-115.5 193.5zM728.5 1682q6.5 31 30.5 53.5t53 20.5t56 -33t38 -105q0 -38 -30.5 -50t-57.5 -12q-58 24 -77 59.5t-12.5 66.5z" />
<glyph unicode="&#xc0;" horiz-adv-x="1624" d="M20 119q8 33 31 53t57 21t72 -33q98 40 165 125t115 175h-45t-61 4t-59 13t-40 26t-4 46t49 71q62 -4 131 -2t129 22q32 52 69 152t76 221t80 246t81 228t79 169t75 66q80 -72 131 -167t87 -203t67 -224t75 -228l324 112q24 0 41 -19t25 -44t5 -48t-23 -29 q-48 -30 -95 -41t-89 -22t-76 -32t-54 -75q0 -68 23 -142t50 -149t50 -149t23 -142q0 -20 -5 -43t-15 -42t-27 -32t-43 -13h-10q-42 72 -63 165t-38 189t-39 189t-64 167q-74 -32 -148 -51t-149 -36t-151 -37t-152 -56q-42 -16 -76 -61t-65 -103t-65 -121t-77 -116t-97 -87 t-128 -34q-66 -8 -101 10t-47 48t-4 63zM760 700q112 20 241 56t243 64q0 66 -19 150t-50 170t-72 165t-83 135q-42 -84 -83 -182t-76 -197t-61 -193t-40 -168zM828 2048q0 36 11 55t51 19q14 -24 41 -49t56 -52t55 -53t37 -51t1 -47t-52 -38q-32 38 -60 59t-52 41t-46 45 t-42 71z" />
<glyph unicode="&#xc1;" horiz-adv-x="1624" d="M20 119q8 33 31 53t57 21t72 -33q98 40 165 125t115 175h-45t-61 4t-59 13t-40 26t-4 46t49 71q62 -4 131 -2t129 22q32 52 69 152t76 221t80 246t81 228t79 169t75 66q80 -72 131 -167t87 -203t67 -224t75 -228l324 112q24 0 41 -19t25 -44t5 -48t-23 -29 q-48 -30 -95 -41t-89 -22t-76 -32t-54 -75q0 -68 23 -142t50 -149t50 -149t23 -142q0 -20 -5 -43t-15 -42t-27 -32t-43 -13h-10q-42 72 -63 165t-38 189t-39 189t-64 167q-74 -32 -148 -51t-149 -36t-151 -37t-152 -56q-42 -16 -76 -61t-65 -103t-65 -121t-77 -116t-97 -87 t-128 -34q-66 -8 -101 10t-47 48t-4 63zM738 1837q-10 21 1 45t40 50t60 52t61 51t44 47q44 0 56 -19t12 -53q-22 -44 -46 -69t-50 -44t-56 -40t-66 -57q-46 16 -56 37zM760 700q112 20 241 56t243 64q0 66 -19 150t-50 170t-72 165t-83 135q-42 -84 -83 -182t-76 -197 t-61 -193t-40 -168z" />
<glyph unicode="&#xc2;" horiz-adv-x="1624" d="M20 119q8 33 31 53t57 21t72 -33q98 40 165 125t115 175h-45t-61 4t-59 13t-40 26t-4 46t49 71q62 -4 131 -2t129 22q32 52 69 152t76 221t80 246t81 228t79 169t75 66q80 -72 131 -167t87 -203t67 -224t75 -228l324 112q24 0 41 -19t25 -44t5 -48t-23 -29 q-48 -30 -95 -41t-89 -22t-76 -32t-54 -75q0 -68 23 -142t50 -149t50 -149t23 -142q0 -20 -5 -43t-15 -42t-27 -32t-43 -13h-10q-42 72 -63 165t-38 189t-39 189t-64 167q-74 -32 -148 -51t-149 -36t-151 -37t-152 -56q-42 -16 -76 -61t-65 -103t-65 -121t-77 -116t-97 -87 t-128 -34q-66 -8 -101 10t-47 48t-4 63zM666 1800q12 66 48 146t87 154t111 132t118 82q30 0 78 -47t92 -111t76 -128t32 -98q0 -20 -12 -32t-28 -18t-36 -8t-34 -2q-42 0 -68 26t-43 63t-30 79t-31 74q-2 0 -5 1t-5 1q-28 0 -47 -25t-36 -64t-34 -83t-38 -83t-48 -64 t-67 -25h-20t-27 3t-23 9t-10 18zM760 700q112 20 241 56t243 64q0 66 -19 150t-50 170t-72 165t-83 135q-42 -84 -83 -182t-76 -197t-61 -193t-40 -168z" />
<glyph unicode="&#xc3;" horiz-adv-x="1624" d="M20 119q8 33 31 53t57 21t72 -33q98 40 165 125t115 175h-45t-61 4t-59 13t-40 26t-4 46t49 71q62 -4 131 -2t129 22q32 52 69 152t76 221t80 246t81 228t79 169t75 66q80 -72 131 -167t87 -203t67 -224t75 -228l324 112q24 0 41 -19t25 -44t5 -48t-23 -29 q-48 -30 -95 -41t-89 -22t-76 -32t-54 -75q0 -68 23 -142t50 -149t50 -149t23 -142q0 -20 -5 -43t-15 -42t-27 -32t-43 -13h-10q-42 72 -63 165t-38 189t-39 189t-64 167q-74 -32 -148 -51t-149 -36t-151 -37t-152 -56q-42 -16 -76 -61t-65 -103t-65 -121t-77 -116t-97 -87 t-128 -34q-66 -8 -101 10t-47 48t-4 63zM684 1877q2 53 25 114t64 112t95 57q46 -12 96 -43t99 -68t94 -74t82 -60t62 -25t35 30q22 24 24 54t-5 64t-17 70t-10 72q44 22 73 9t44 -43t21 -69t6 -69q2 -106 -17 -162t-51 -75t-75 -9t-92 36t-101 61t-102 66t-94 51t-76 16 q-30 -14 -44 -38t-20 -50t-8 -50t-10 -38t-25 -16t-51 18q-24 6 -22 59zM760 700q112 20 241 56t243 64q0 66 -19 150t-50 170t-72 165t-83 135q-42 -84 -83 -182t-76 -197t-61 -193t-40 -168z" />
<glyph unicode="&#xc4;" horiz-adv-x="1624" d="M20 119q8 33 31 53t57 21t72 -33q98 40 165 125t115 175h-45t-61 4t-59 13t-40 26t-4 46t49 71q62 -4 131 -2t129 22q32 52 69 152t76 221t80 246t81 228t79 169t75 66q80 -72 131 -167t87 -203t67 -224t75 -228l324 112q24 0 41 -19t25 -44t5 -48t-23 -29 q-48 -30 -95 -41t-89 -22t-76 -32t-54 -75q0 -68 23 -142t50 -149t50 -149t23 -142q0 -20 -5 -43t-15 -42t-27 -32t-43 -13h-10q-42 72 -63 165t-38 189t-39 189t-64 167q-74 -32 -148 -51t-149 -36t-151 -37t-152 -56q-42 -16 -76 -61t-65 -103t-65 -121t-77 -116t-97 -87 t-128 -34q-66 -8 -101 10t-47 48t-4 63zM750 1944q0 34 24 53t58 19q20 0 42 -12t40 -30t29 -39t11 -39q0 -24 -5 -55t-35 -31q-24 0 -53 11t-54 30t-41 43t-16 50zM760 700q112 20 241 56t243 64q0 66 -19 150t-50 170t-72 165t-83 135q-42 -84 -83 -182t-76 -197t-61 -193 t-40 -168zM1118 1944q0 34 24 53t58 19q20 0 42 -12t40 -30t29 -39t11 -39q0 -24 -5 -55t-35 -31q-24 0 -53 11t-54 30t-41 43t-16 50z" />
<glyph unicode="&#xc5;" horiz-adv-x="1624" d="M20 119q8 33 31 53t57 21t72 -33q98 40 165 125t115 175h-45t-61 4t-59 13t-40 26t-4 46t49 71q62 -4 131 -2t129 22q32 52 69 152t76 221t80 246t81 228t79 169t75 66q80 -72 131 -167t87 -203t67 -224t75 -228l324 112q24 0 41 -19t25 -44t5 -48t-23 -29 q-48 -30 -95 -41t-89 -22t-76 -32t-54 -75q0 -68 23 -142t50 -149t50 -149t23 -142q0 -20 -5 -43t-15 -42t-27 -32t-43 -13h-10q-42 72 -63 165t-38 189t-39 189t-64 167q-74 -32 -148 -51t-149 -36t-151 -37t-152 -56q-42 -16 -76 -61t-65 -103t-65 -121t-77 -116t-97 -87 t-128 -34q-66 -8 -101 10t-47 48t-4 63zM696 1800q2 10 7 13t11 4t13 3t11 8q-8 64 24 105t85 61t117 20t121 -19t99 -55t50 -88q4 -28 -5 -51t-28 -41t-46 -30t-59 -16q-48 -6 -103 -3t-109 13t-103 29t-85 47zM760 700q112 20 241 56t243 64q0 66 -19 150t-50 170t-72 165 t-83 135q-42 -84 -83 -182t-76 -197t-61 -193t-40 -168zM828 1848q10 -30 49 -42t85 -10t89 14t61 30q-6 38 -50 61t-95 26t-94 -16t-45 -63z" />
<glyph unicode="&#xc6;" horiz-adv-x="2408" d="M8 65q8 33 31 53t57 21t72 -33q98 40 165 125t115 175h-45t-61 4t-59 13t-40 26t-4 46t49 71q62 -4 131 -2t129 22q32 52 69 152t76 221t80 246t81 228t79 169t75 66q36 -32 65 -69t53 -77l-4 16q-16 56 32 79t132 26t194 -5t220 -15t207 -5t157 28q48 -12 49 -59 t-29 -97q-72 4 -168 -9t-196 -29t-196 -30t-168 -12q-44 0 -52 -45t5 -119t37 -167t44 -189q2 0 31 5t114 22t243 47t418 80q56 -24 57 -49t-37 -49t-106 -47t-150 -46t-168 -46t-159 -45t-126 -42t-67 -40q-2 -42 -1 -80t3 -72q16 -62 40 -124t46 -126q30 -32 68 -46 t83 -15t97 10t108 31q48 10 114 35t133 50t124 43t89 15t28 -35t-60 -106q-84 -34 -176 -66t-187 -60t-190 -49t-187 -31q-4 -40 -24 -79t-66 -39h-10q-42 72 -63 165t-38 189t-39 189t-64 167q-74 -32 -148 -51t-149 -36t-151 -37t-152 -56q-42 -16 -76 -61t-65 -103 t-65 -121t-77 -116t-97 -87t-128 -34q-66 -8 -101 10t-47 48t-4 63zM748 646q112 20 241 56t243 64q0 66 -19 150t-50 170t-72 165t-83 135q-42 -84 -83 -182t-76 -197t-61 -193t-40 -168z" />
<glyph unicode="&#xc7;" horiz-adv-x="960" d="M40 520q-6 98 9 222t50 250t92 246t138 213t184 147t231 50q36 -6 63 -23t42 -40t13 -47t-24 -42q-146 42 -262 -19t-199 -188t-132 -304t-61 -369q-4 -138 36 -232t105 -149t148 -74t168 -8t161 50t128 101q2 -80 -35 -140t-97 -99t-133 -56t-139 -11q-108 0 -197 41 t-154 111t-100 166t-35 204zM401 -667q1 15 5 34t4 35q22 18 57 24t77 8t89 4t93 9t88 24t76 51q34 96 18 145t-61 66t-110 13t-126 -15t-110 -18t-61 5q6 72 4 106t-5 61t-7 61t-4 106q0 36 26 61t60 25q36 0 52 -18t22 -44t4 -58t-4 -58t-1 -44t13 -18q148 0 233 -16 t127 -42t52 -56t10 -58q20 -108 1 -185t-65 -128t-113 -80t-140 -40t-148 -9t-137 14q-14 0 -17 10t-2 25z" />
<glyph unicode="&#xc8;" horiz-adv-x="1256" d="M40 1335q0 81 21 129t73 48q86 0 188 -2t208 3t209 21t193 54q48 -12 49 -59t-29 -97q-72 4 -168 -9t-196 -29t-196 -30t-168 -12q-44 0 -52 -45t5 -119t37 -167t44 -189q2 0 63 12t149 30t191 38t191 37t148 28t64 9q54 -24 36 -55t-87 -64t-176 -65t-229 -58 q-16 -4 -58 -15t-90 -23t-90 -22t-58 -12q-14 -198 14 -310t88 -160t147 -43t191 41q48 10 114 35t133 50t124 43t89 15t28 -35t-60 -106q-90 -36 -189 -70t-200 -63t-203 -50t-200 -27q-90 22 -165 68t-111 87t-19 59t113 -14q16 38 10 116t-25 178t-45 215t-49 229 t-40 219t-17 186zM444 2016q0 36 11 55t51 19q14 -24 41 -49t56 -52t55 -53t37 -51t1 -47t-52 -38q-32 38 -60 59t-52 41t-46 45t-42 71z" />
<glyph unicode="&#xc9;" horiz-adv-x="1256" d="M40 1335q0 81 21 129t73 48q86 0 188 -2t208 3t209 21t193 54q48 -12 49 -59t-29 -97q-72 4 -168 -9t-196 -29t-196 -30t-168 -12q-44 0 -52 -45t5 -119t37 -167t44 -189q2 0 63 12t149 30t191 38t191 37t148 28t64 9q54 -24 36 -55t-87 -64t-176 -65t-229 -58 q-16 -4 -58 -15t-90 -23t-90 -22t-58 -12q-14 -198 14 -310t88 -160t147 -43t191 41q48 10 114 35t133 50t124 43t89 15t28 -35t-60 -106q-90 -36 -189 -70t-200 -63t-203 -50t-200 -27q-90 22 -165 68t-111 87t-19 59t113 -14q16 38 10 116t-25 178t-45 215t-49 229 t-40 219t-17 186zM554 1837q-10 21 1 45t40 50t60 52t61 51t44 47q44 0 56 -19t12 -53q-22 -44 -46 -69t-50 -44t-56 -40t-66 -57q-46 16 -56 37z" />
<glyph unicode="&#xca;" horiz-adv-x="1256" d="M40 1335q0 81 21 129t73 48q86 0 188 -2t208 3t209 21t193 54q48 -12 49 -59t-29 -97q-72 4 -168 -9t-196 -29t-196 -30t-168 -12q-44 0 -52 -45t5 -119t37 -167t44 -189q2 0 63 12t149 30t191 38t191 37t148 28t64 9q54 -24 36 -55t-87 -64t-176 -65t-229 -58 q-16 -4 -58 -15t-90 -23t-90 -22t-58 -12q-14 -198 14 -310t88 -160t147 -43t191 41q48 10 114 35t133 50t124 43t89 15t28 -35t-60 -106q-90 -36 -189 -70t-200 -63t-203 -50t-200 -27q-90 22 -165 68t-111 87t-19 59t113 -14q16 38 10 116t-25 178t-45 215t-49 229 t-40 219t-17 186zM306 1824q12 66 48 146t87 154t111 132t118 82q30 0 78 -47t92 -111t76 -128t32 -98q0 -20 -12 -32t-28 -18t-36 -8t-34 -2q-42 0 -68 26t-43 63t-30 79t-31 74q-2 0 -5 1t-5 1q-28 0 -47 -25t-36 -64t-34 -83t-38 -83t-48 -64t-67 -25h-20t-27 3t-23 9 t-10 18z" />
<glyph unicode="&#xcb;" horiz-adv-x="1256" d="M40 1335q0 81 21 129t73 48q86 0 188 -2t208 3t209 21t193 54q48 -12 49 -59t-29 -97q-72 4 -168 -9t-196 -29t-196 -30t-168 -12q-44 0 -52 -45t5 -119t37 -167t44 -189q2 0 63 12t149 30t191 38t191 37t148 28t64 9q54 -24 36 -55t-87 -64t-176 -65t-229 -58 q-16 -4 -58 -15t-90 -23t-90 -22t-58 -12q-14 -198 14 -310t88 -160t147 -43t191 41q48 10 114 35t133 50t124 43t89 15t28 -35t-60 -106q-90 -36 -189 -70t-200 -63t-203 -50t-200 -27q-90 22 -165 68t-111 87t-19 59t113 -14q16 38 10 116t-25 178t-45 215t-49 229 t-40 219t-17 186zM342 1920q0 34 24 53t58 19q20 0 42 -12t40 -30t29 -39t11 -39q0 -24 -5 -55t-35 -31q-24 0 -53 11t-54 30t-41 43t-16 50zM710 1920q0 34 24 53t58 19q20 0 42 -12t40 -30t29 -39t11 -39q0 -24 -5 -55t-35 -31q-24 0 -53 11t-54 30t-41 43t-16 50z" />
<glyph unicode="&#xcc;" horiz-adv-x="320" d="M-22 2016q0 36 11 55t51 19q14 -24 41 -49t56 -52t55 -53t37 -51t1 -47t-52 -38q-32 38 -60 59t-52 41t-46 45t-42 71zM80 80q2 88 4 210t4 260t4 285t4 286t4 263t4 216q2 28 14 54t28 37t35 0t35 -59q8 -142 13 -296t7 -309t1 -304t-3 -281t-6 -240t-8 -182 q-14 -18 -37 -18t-45 11t-39 29t-19 38z" />
<glyph unicode="&#xcd;" horiz-adv-x="320" d="M80 80q2 88 4 210t4 260t4 285t4 286t4 263t4 216q2 28 14 54t28 37t35 0t35 -59q8 -142 13 -296t7 -309t1 -304t-3 -281t-6 -240t-8 -182q-14 -18 -37 -18t-45 11t-39 29t-19 38zM86 1837q-10 21 1 45t40 50t60 52t61 51t44 47q44 0 56 -19t12 -53q-22 -44 -46 -69 t-50 -44t-56 -40t-66 -57q-46 16 -56 37z" />
<glyph unicode="&#xce;" horiz-adv-x="320" d="M-158 1824q12 66 48 146t87 154t111 132t118 82q30 0 78 -47t92 -111t76 -128t32 -98q0 -20 -12 -32t-28 -18t-36 -8t-34 -2q-42 0 -68 26t-43 63t-30 79t-31 74q-2 0 -5 1t-5 1q-28 0 -47 -25t-36 -64t-34 -83t-38 -83t-48 -64t-67 -25h-20t-27 3t-23 9t-10 18zM80 80 q2 88 4 210t4 260t4 285t4 286t4 263t4 216q2 28 14 54t28 37t35 0t35 -59q8 -142 13 -296t7 -309t1 -304t-3 -281t-6 -240t-8 -182q-14 -18 -37 -18t-45 11t-39 29t-19 38z" />
<glyph unicode="&#xcf;" horiz-adv-x="320" d="M-124 1920q0 34 24 53t58 19q20 0 42 -12t40 -30t29 -39t11 -39q0 -24 -5 -55t-35 -31q-24 0 -53 11t-54 30t-41 43t-16 50zM80 80q2 88 4 210t4 260t4 285t4 286t4 263t4 216q2 28 14 54t28 37t35 0t35 -59q8 -142 13 -296t7 -309t1 -304t-3 -281t-6 -240t-8 -182 q-14 -18 -37 -18t-45 11t-39 29t-19 38zM244 1920q0 34 24 53t58 19q20 0 42 -12t40 -30t29 -39t11 -39q0 -24 -5 -55t-35 -31q-24 0 -53 11t-54 30t-41 43t-16 50z" />
<glyph unicode="&#xd1;" horiz-adv-x="1416" d="M53 1578q-1 18 3 33t15 25t33 12q36 0 90 -58t121 -153t143 -216t156 -248t159 -248t152 -216t136 -153t109 -58q40 -4 62 52t28 152t-5 224t-37 270t-66 289t-94 283q-8 24 -6 50t10 41t23 14t35 -29q52 -68 93 -174t73 -232t51 -263t27 -268t2 -247t-26 -198t-55 -122 t-85 -20q-96 26 -178 94t-153 160t-135 201t-126 217t-125 208t-131 176q-14 -74 -15 -175t6 -212t20 -227t26 -222t24 -195t15 -147q-52 -36 -83 -27t-47 48t-19 103t1 142q-6 58 -12 146t-9 190t-6 212t-4 213t0 191t5 148q-18 24 -44 47t-54 45t-55 43t-47 45q0 16 -1 34 zM332 1885q2 53 25 114t64 112t95 57q46 -12 96 -43t99 -68t94 -74t82 -60t62 -25t35 30q22 24 24 54t-5 64t-17 70t-10 72q44 22 73 9t44 -43t21 -69t6 -69q2 -106 -17 -162t-51 -75t-75 -9t-92 36t-101 61t-102 66t-94 51t-76 16q-30 -14 -44 -38t-20 -50t-8 -50t-10 -38 t-25 -16t-51 18q-24 6 -22 59z" />
<glyph unicode="&#xd2;" d="M58 644q4 76 9 179t18 213t38 219t67 199t105 151t153 75h10q72 4 137 -60t117 -175t88 -255t48 -297t-4 -304t-64 -275t-135 -209t-217 -107q-74 0 -131 32t-98 85t-68 121t-43 140t-23 142t-7 126zM185 570q3 -128 30 -227t79 -156t138 -49q88 22 150 90t99 164t51 213 t8 238t-30 237t-65 212t-96 162t-121 86q-32 4 -68 -55t-68 -160t-58 -230t-39 -263t-10 -262zM276 2016q0 36 11 55t51 19q14 -24 41 -49t56 -52t55 -53t37 -51t1 -47t-52 -38q-32 38 -60 59t-52 41t-46 45t-42 71z" />
<glyph unicode="&#xd3;" d="M58 644q4 76 9 179t18 213t38 219t67 199t105 151t153 75h10q72 4 137 -60t117 -175t88 -255t48 -297t-4 -304t-64 -275t-135 -209t-217 -107q-74 0 -131 32t-98 85t-68 121t-43 140t-23 142t-7 126zM185 570q3 -128 30 -227t79 -156t138 -49q88 22 150 90t99 164t51 213 t8 238t-30 237t-65 212t-96 162t-121 86q-32 4 -68 -55t-68 -160t-58 -230t-39 -263t-10 -262zM386 1837q-10 21 1 45t40 50t60 52t61 51t44 47q44 0 56 -19t12 -53q-22 -44 -46 -69t-50 -44t-56 -40t-66 -57q-46 16 -56 37z" />
<glyph unicode="&#xd4;" d="M58 644q4 76 9 179t18 213t38 219t67 199t105 151t153 75h10q72 4 137 -60t117 -175t88 -255t48 -297t-4 -304t-64 -275t-135 -209t-217 -107q-74 0 -131 32t-98 85t-68 121t-43 140t-23 142t-7 126zM138 1824q12 66 48 146t87 154t111 132t118 82q30 0 78 -47t92 -111 t76 -128t32 -98q0 -20 -12 -32t-28 -18t-36 -8t-34 -2q-42 0 -68 26t-43 63t-30 79t-31 74q-2 0 -5 1t-5 1q-28 0 -47 -25t-36 -64t-34 -83t-38 -83t-48 -64t-67 -25h-20t-27 3t-23 9t-10 18zM185 570q3 -128 30 -227t79 -156t138 -49q88 22 150 90t99 164t51 213t8 238 t-30 237t-65 212t-96 162t-121 86q-32 4 -68 -55t-68 -160t-58 -230t-39 -263t-10 -262z" />
<glyph unicode="&#xd5;" d="M58 644q4 76 9 179t18 213t38 219t67 199t105 151t153 75h10q72 4 137 -60t117 -175t88 -255t48 -297t-4 -304t-64 -275t-135 -209t-217 -107q-74 0 -131 32t-98 85t-68 121t-43 140t-23 142t-7 126zM84 1885q2 53 25 114t64 112t95 57q46 -12 96 -43t99 -68t94 -74 t82 -60t62 -25t35 30q22 24 24 54t-5 64t-17 70t-10 72q44 22 73 9t44 -43t21 -69t6 -69q2 -106 -17 -162t-51 -75t-75 -9t-92 36t-101 61t-102 66t-94 51t-76 16q-30 -14 -44 -38t-20 -50t-8 -50t-10 -38t-25 -16t-51 18q-24 6 -22 59zM185 570q3 -128 30 -227t79 -156 t138 -49q88 22 150 90t99 164t51 213t8 238t-30 237t-65 212t-96 162t-121 86q-32 4 -68 -55t-68 -160t-58 -230t-39 -263t-10 -262z" />
<glyph unicode="&#xd6;" d="M58 644q4 76 9 179t18 213t38 219t67 199t105 151t153 75h10q72 4 137 -60t117 -175t88 -255t48 -297t-4 -304t-64 -275t-135 -209t-217 -107q-74 0 -131 32t-98 85t-68 121t-43 140t-23 142t-7 126zM174 1920q0 34 24 53t58 19q20 0 42 -12t40 -30t29 -39t11 -39 q0 -24 -5 -55t-35 -31q-24 0 -53 11t-54 30t-41 43t-16 50zM185 570q3 -128 30 -227t79 -156t138 -49q88 22 150 90t99 164t51 213t8 238t-30 237t-65 212t-96 162t-121 86q-32 4 -68 -55t-68 -160t-58 -230t-39 -263t-10 -262zM542 1920q0 34 24 53t58 19q20 0 42 -12 t40 -30t29 -39t11 -39q0 -24 -5 -55t-35 -31q-24 0 -53 11t-54 30t-41 43t-16 50z" />
<glyph unicode="&#xd8;" d="M58 644q4 76 9 179t18 213t38 219t67 199t105 151t153 75h10q72 4 137 -60t117 -175t88 -255t48 -297t-4 -304t-64 -275t-135 -209t-217 -107q-74 0 -131 32t-98 85t-68 121t-43 140t-23 142t-7 126zM94 50q16 62 59 191t100 289t120 334t118 327t94 268t49 155 q2 52 36 82t67 32t51 -27t-8 -93q-52 -212 -125 -405t-148 -385t-140 -390t-99 -418q-12 -38 -45 -53t-64 -9t-53 32t-12 70zM185 570q3 -128 30 -227t79 -156t138 -49q88 22 150 90t99 164t51 213t8 238t-30 237t-65 212t-96 162t-121 86q-32 4 -68 -55t-68 -160t-58 -230 t-39 -263t-10 -262z" />
<glyph unicode="&#xd9;" horiz-adv-x="1280" d="M86 953q2 183 12 362t14 329q8 22 21 42t39 20q28 0 39 -67t14 -177t1 -250t1 -287t14 -287t41 -250t81 -177t133 -67q88 0 142 75t86 200t45 286t18 329t8 331t15 293q0 16 15 32t37 23t44 3t38 -28q4 -200 15 -401t41 -402t82 -403t140 -402q0 -84 -86 -84q-14 0 -24 4 t-22 25t-26 65t-36 125t-53 204t-75 301q-16 -28 -24 -94t-21 -148t-34 -170t-63 -159t-109 -114t-171 -35q-126 0 -204 80t-120 213t-56 305t-12 355zM456 2016q0 36 11 55t51 19q14 -24 41 -49t56 -52t55 -53t37 -51t1 -47t-52 -38q-32 38 -60 59t-52 41t-46 45t-42 71z " />
<glyph unicode="&#xda;" horiz-adv-x="1280" d="M86 953q2 183 12 362t14 329q8 22 21 42t39 20q28 0 39 -67t14 -177t1 -250t1 -287t14 -287t41 -250t81 -177t133 -67q88 0 142 75t86 200t45 286t18 329t8 331t15 293q0 16 15 32t37 23t44 3t38 -28q4 -200 15 -401t41 -402t82 -403t140 -402q0 -84 -86 -84q-14 0 -24 4 t-22 25t-26 65t-36 125t-53 204t-75 301q-16 -28 -24 -94t-21 -148t-34 -170t-63 -159t-109 -114t-171 -35q-126 0 -204 80t-120 213t-56 305t-12 355zM462 1813q-10 21 1 45t40 50t60 52t61 51t44 47q44 0 56 -19t12 -53q-22 -44 -46 -69t-50 -44t-56 -40t-66 -57 q-46 16 -56 37z" />
<glyph unicode="&#xdb;" horiz-adv-x="1280" d="M86 953q2 183 12 362t14 329q8 22 21 42t39 20q28 0 39 -67t14 -177t1 -250t1 -287t14 -287t41 -250t81 -177t133 -67q88 0 142 75t86 200t45 286t18 329t8 331t15 293q0 16 15 32t37 23t44 3t38 -28q4 -200 15 -401t41 -402t82 -403t140 -402q0 -84 -86 -84q-14 0 -24 4 t-22 25t-26 65t-36 125t-53 204t-75 301q-16 -28 -24 -94t-21 -148t-34 -170t-63 -159t-109 -114t-171 -35q-126 0 -204 80t-120 213t-56 305t-12 355zM222 1808q12 66 48 146t87 154t111 132t118 82q30 0 78 -47t92 -111t76 -128t32 -98q0 -20 -12 -32t-28 -18t-36 -8 t-34 -2q-42 0 -68 26t-43 63t-30 79t-31 74q-2 0 -5 1t-5 1q-28 0 -47 -25t-36 -64t-34 -83t-38 -83t-48 -64t-67 -25h-20t-27 3t-23 9t-10 18z" />
<glyph unicode="&#xdc;" horiz-adv-x="1280" d="M86 953q2 183 12 362t14 329q8 22 21 42t39 20q28 0 39 -67t14 -177t1 -250t1 -287t14 -287t41 -250t81 -177t133 -67q88 0 142 75t86 200t45 286t18 329t8 331t15 293q0 16 15 32t37 23t44 3t38 -28q4 -200 15 -401t41 -402t82 -403t140 -402q0 -84 -86 -84q-14 0 -24 4 t-22 25t-26 65t-36 125t-53 204t-75 301q-16 -28 -24 -94t-21 -148t-34 -170t-63 -159t-109 -114t-171 -35q-126 0 -204 80t-120 213t-56 305t-12 355zM242 1944q0 34 24 53t58 19q20 0 42 -12t40 -30t29 -39t11 -39q0 -24 -5 -55t-35 -31q-24 0 -53 11t-54 30t-41 43 t-16 50zM610 1944q0 34 24 53t58 19q20 0 42 -12t40 -30t29 -39t11 -39q0 -24 -5 -55t-35 -31q-24 0 -53 11t-54 30t-41 43t-16 50z" />
<glyph unicode="&#xdd;" horiz-adv-x="1100" d="M40 1592q0 34 13 62t47 28q28 -4 72 -42t97 -97t112 -131t118 -145t116 -138t105 -109q46 72 71 155t44 169t37 172t48 164q20 0 42 2t39 -2t29 -16t12 -42q-24 -108 -54 -238t-63 -270t-69 -284t-73 -282t-73 -263t-70 -225q-14 -40 -43 -55t-60 -9t-54 33t-25 71 q42 90 81 178t68 179t44 186t9 197q-82 98 -164 188t-162 180t-154 184t-140 200zM476 1837q-10 21 1 45t40 50t60 52t61 51t44 47q44 0 56 -19t12 -53q-22 -44 -46 -69t-50 -44t-56 -40t-66 -57q-46 16 -56 37z" />
<glyph unicode="&#xdf;" horiz-adv-x="1568" d="M99 -121q-5 91 3 218t24 279t28 303t17 289t-7 238q-12 136 31 220t118 124t171 40t190 -30t173 -85t121 -127t35 -155t-87 -169q64 0 139 -14t149 -42t139 -71t111 -101t65 -131t-1 -161q-28 -74 -90 -138t-146 -114t-182 -85t-199 -50t-197 -11t-172 32 q-102 30 -158 62t-72 60t2 49t62 27t109 -6t141 -50q60 2 134 6t152 13t154 25t140 43t112 69t70 102q30 76 2 136t-95 101t-164 64t-207 28t-224 -8t-216 -45l22 154q62 20 119 41t106 51t86 70t57 98t-23 109t-116 81t-162 36t-162 -24t-116 -103t-25 -199l-44 -1312 q-14 -14 -39 -33t-47 -23q-26 28 -31 119z" />
<glyph unicode="&#xe0;" horiz-adv-x="1152" d="M20 250q-20 196 16 342t108 250t173 172t212 108t224 56t211 16q8 4 27 6t36 0t29 -11t8 -25l58 -1108q4 -24 -8 -40t-32 -20t-46 6t-52 38l-12 838q-34 -70 -84 -159t-110 -182t-127 -182t-137 -159t-139 -114t-134 -45t-121 49t-100 164zM120 349q12 -79 66 -147 q34 -46 98 -19t142 101t163 180t160 215t131 208t80 161q-74 28 -158 22t-169 -39t-166 -88t-149 -124t-118 -148t-71 -161t-9 -161zM632 1576q0 36 11 55t51 19q14 -24 41 -49t56 -52t55 -53t37 -51t1 -47t-52 -38q-32 38 -60 59t-52 41t-46 45t-42 71z" />
<glyph unicode="&#xe1;" horiz-adv-x="1152" d="M20 250q-20 196 16 342t108 250t173 172t212 108t224 56t211 16q8 4 27 6t36 0t29 -11t8 -25l58 -1108q4 -24 -8 -40t-32 -20t-46 6t-52 38l-12 838q-34 -70 -84 -159t-110 -182t-127 -182t-137 -159t-139 -114t-134 -45t-121 49t-100 164zM120 349q12 -79 66 -147 q34 -46 98 -19t142 101t163 180t160 215t131 208t80 161q-74 28 -158 22t-169 -39t-166 -88t-149 -124t-118 -148t-71 -161t-9 -161zM646 1389q-10 21 1 45t40 50t60 52t61 51t44 47q44 0 56 -19t12 -53q-22 -44 -46 -69t-50 -44t-56 -40t-66 -57q-46 16 -56 37z" />
<glyph unicode="&#xe2;" horiz-adv-x="1152" d="M20 250q-20 196 16 342t108 250t173 172t212 108t224 56t211 16q8 4 27 6t36 0t29 -11t8 -25l58 -1108q4 -24 -8 -40t-32 -20t-46 6t-52 38l-12 838q-34 -70 -84 -159t-110 -182t-127 -182t-137 -159t-139 -114t-134 -45t-121 49t-100 164zM120 349q12 -79 66 -147 q34 -46 98 -19t142 101t163 180t160 215t131 208t80 161q-74 28 -158 22t-169 -39t-166 -88t-149 -124t-118 -148t-71 -161t-9 -161zM502 1304q12 66 48 146t87 154t111 132t118 82q30 0 78 -47t92 -111t76 -128t32 -98q0 -20 -12 -32t-28 -18t-36 -8t-34 -2q-42 0 -68 26 t-43 63t-30 79t-31 74q-2 0 -5 1t-5 1q-28 0 -47 -25t-36 -64t-34 -83t-38 -83t-48 -64t-67 -25h-20t-27 3t-23 9t-10 18z" />
<glyph unicode="&#xe3;" horiz-adv-x="1152" d="M20 250q-20 196 16 342t108 250t173 172t212 108t224 56t211 16q8 4 27 6t36 0t29 -11t8 -25l58 -1108q4 -24 -8 -40t-32 -20t-46 6t-52 38l-12 838q-34 -70 -84 -159t-110 -182t-127 -182t-137 -159t-139 -114t-134 -45t-121 49t-100 164zM120 349q12 -79 66 -147 q34 -46 98 -19t142 101t163 180t160 215t131 208t80 161q-74 28 -158 22t-169 -39t-166 -88t-149 -124t-118 -148t-71 -161t-9 -161zM344 1453q2 53 25 114t64 112t95 57q46 -12 96 -43t99 -68t94 -74t82 -60t62 -25t35 30q22 24 24 54t-5 64t-17 70t-10 72q44 22 73 9 t44 -43t21 -69t6 -69q2 -106 -17 -162t-51 -75t-75 -9t-92 36t-101 61t-102 66t-94 51t-76 16q-30 -14 -44 -38t-20 -50t-8 -50t-10 -38t-25 -16t-51 18q-24 6 -22 59z" />
<glyph unicode="&#xe4;" horiz-adv-x="1152" d="M20 250q-20 196 16 342t108 250t173 172t212 108t224 56t211 16q8 4 27 6t36 0t29 -11t8 -25l58 -1108q4 -24 -8 -40t-32 -20t-46 6t-52 38l-12 838q-34 -70 -84 -159t-110 -182t-127 -182t-137 -159t-139 -114t-134 -45t-121 49t-100 164zM120 349q12 -79 66 -147 q34 -46 98 -19t142 101t163 180t160 215t131 208t80 161q-74 28 -158 22t-169 -39t-166 -88t-149 -124t-118 -148t-71 -161t-9 -161zM506 1512q0 34 24 53t58 19q20 0 42 -12t40 -30t29 -39t11 -39q0 -24 -5 -55t-35 -31q-24 0 -53 11t-54 30t-41 43t-16 50zM874 1512 q0 34 24 53t58 19q20 0 42 -12t40 -30t29 -39t11 -39q0 -24 -5 -55t-35 -31q-24 0 -53 11t-54 30t-41 43t-16 50z" />
<glyph unicode="&#xe5;" horiz-adv-x="1152" d="M20 250q-20 196 16 342t108 250t173 172t212 108t224 56t211 16q8 4 27 6t36 0t29 -11t8 -25l58 -1108q4 -24 -8 -40t-32 -20t-46 6t-52 38l-12 838q-34 -70 -84 -159t-110 -182t-127 -182t-137 -159t-139 -114t-134 -45t-121 49t-100 164zM120 349q12 -79 66 -147 q34 -46 98 -19t142 101t163 180t160 215t131 208t80 161q-74 28 -158 22t-169 -39t-166 -88t-149 -124t-118 -148t-71 -161t-9 -161zM420 1384q2 10 7 13t11 4t13 3t11 8q-8 64 24 105t85 61t117 20t121 -19t99 -55t50 -88q4 -28 -5 -51t-28 -41t-46 -30t-59 -16 q-48 -6 -103 -3t-109 13t-103 29t-85 47zM552 1432q10 -30 49 -42t85 -10t89 14t61 30q-6 38 -50 61t-95 26t-94 -16t-45 -63z" />
<glyph unicode="&#xe6;" horiz-adv-x="1856" d="M20 250q-20 196 16 342t108 250t173 172t212 108t224 56t211 16q8 4 27 6t36 0t29 -11t8 -25l18 -334q26 48 63 111t93 120t133 97t183 40q42 0 81 -17t68 -46t46 -66t17 -77q0 -90 -27 -147t-73 -91t-107 -51t-131 -27t-145 -19t-147 -27q-26 -102 -9 -194t63 -161 t114 -109t142 -41t147 44t131 147q18 0 27 -11t12 -26t3 -32t-2 -31q-90 -122 -182 -170t-177 -40t-160 61t-131 135l8 -146q4 -24 -8 -40t-32 -20t-46 6t-52 38l-12 838q-34 -70 -84 -159t-110 -182t-127 -182t-137 -159t-139 -114t-134 -45t-121 49t-100 164zM120 349 q12 -79 66 -147q34 -46 98 -19t142 101t163 180t160 215t131 208t80 161q-74 28 -158 22t-169 -39t-166 -88t-149 -124t-118 -148t-71 -161t-9 -161zM1176 748q-2 4 32 7t86 10t113 18t116 34t95 59t48 92q0 26 -13 43t-33 27t-44 15t-44 5q-88 -6 -151 -39t-105 -80 t-66 -98t-34 -93z" />
<glyph unicode="&#xe7;" horiz-adv-x="840" d="M38 424q0 70 28 157t77 178t115 178t141 155t156 109t159 41q20 0 37 -9t28 -24t11 -36t-14 -45q-130 -60 -239 -132t-188 -164t-124 -206t-47 -258q0 -40 16 -78t43 -67t64 -47t77 -18q64 0 125 33t116 72t103 72t86 33q26 -32 16 -73t-45 -83t-87 -82t-111 -71 t-116 -48t-99 -13q-82 0 -143 42t-102 105t-62 138t-21 141zM317 -667q1 15 5 34t4 35q22 18 57 24t77 8t89 4t93 9t88 24t76 51q34 96 18 145t-61 66t-110 13t-126 -15t-110 -18t-61 5q6 72 4 106t-5 61t-7 61t-4 106q0 36 26 61t60 25q36 0 52 -18t22 -44t4 -58t-4 -58 t-1 -44t13 -18q148 0 233 -16t127 -42t52 -56t10 -58q20 -108 1 -185t-65 -128t-113 -80t-140 -40t-148 -9t-137 14q-14 0 -17 10t-2 25z" />
<glyph unicode="&#xe8;" horiz-adv-x="944" d="M-70 782q28 0 54 -7t53 -14l54 -14t55 -7q14 0 32 33t45 82t66 106t93 106t126 82t166 33q42 0 81 -17t68 -46t46 -66t17 -77q0 -90 -27 -147t-73 -91t-107 -51t-131 -27t-145 -19t-147 -27q-26 -102 -9 -194t63 -161t114 -109t142 -41t147 44t131 147q18 0 27 -11 t12 -26t3 -32t-2 -31q-92 -126 -187 -173t-183 -36t-164 71t-132 149t-87 196t-27 213q-24 24 -54 34t-57 22t-45 35t-18 71zM296 732q-2 6 32 8t86 9t113 18t116 34t95 59t48 92q0 26 -13 43t-33 27t-44 15t-44 5q-88 -6 -151 -39t-105 -80t-66 -98t-34 -93zM552 1576 q0 36 11 55t51 19q14 -24 41 -49t56 -52t55 -53t37 -51t1 -47t-52 -38q-32 38 -60 59t-52 41t-46 45t-42 71z" />
<glyph unicode="&#xe9;" horiz-adv-x="944" d="M-70 782q28 0 54 -7t53 -14l54 -14t55 -7q14 0 32 33t45 82t66 106t93 106t126 82t166 33q42 0 81 -17t68 -46t46 -66t17 -77q0 -90 -27 -147t-73 -91t-107 -51t-131 -27t-145 -19t-147 -27q-26 -102 -9 -194t63 -161t114 -109t142 -41t147 44t131 147q18 0 27 -11 t12 -26t3 -32t-2 -31q-92 -126 -187 -173t-183 -36t-164 71t-132 149t-87 196t-27 213q-24 24 -54 34t-57 22t-45 35t-18 71zM296 732q-2 6 32 8t86 9t113 18t116 34t95 59t48 92q0 26 -13 43t-33 27t-44 15t-44 5q-88 -6 -151 -39t-105 -80t-66 -98t-34 -93zM398 1277 q-10 21 1 45t40 50t60 52t61 51t44 47q44 0 56 -19t12 -53q-22 -44 -46 -69t-50 -44t-56 -40t-66 -57q-46 16 -56 37z" />
<glyph unicode="&#xea;" horiz-adv-x="944" d="M-70 782q28 0 54 -7t53 -14l54 -14t55 -7q14 0 32 33t45 82t66 106t93 106t126 82t166 33q42 0 81 -17t68 -46t46 -66t17 -77q0 -90 -27 -147t-73 -91t-107 -51t-131 -27t-145 -19t-147 -27q-26 -102 -9 -194t63 -161t114 -109t142 -41t147 44t131 147q18 0 27 -11 t12 -26t3 -32t-2 -31q-92 -126 -187 -173t-183 -36t-164 71t-132 149t-87 196t-27 213q-24 24 -54 34t-57 22t-45 35t-18 71zM270 1264q12 66 48 146t87 154t111 132t118 82q30 0 78 -47t92 -111t76 -128t32 -98q0 -20 -12 -32t-28 -18t-36 -8t-34 -2q-42 0 -68 26t-43 63 t-30 79t-31 74q-2 0 -5 1t-5 1q-28 0 -47 -25t-36 -64t-34 -83t-38 -83t-48 -64t-67 -25h-20t-27 3t-23 9t-10 18zM296 732q-2 6 32 8t86 9t113 18t116 34t95 59t48 92q0 26 -13 43t-33 27t-44 15t-44 5q-88 -6 -151 -39t-105 -80t-66 -98t-34 -93z" />
<glyph unicode="&#xeb;" horiz-adv-x="944" d="M-70 782q28 0 54 -7t53 -14l54 -14t55 -7q14 0 32 33t45 82t66 106t93 106t126 82t166 33q42 0 81 -17t68 -46t46 -66t17 -77q0 -90 -27 -147t-73 -91t-107 -51t-131 -27t-145 -19t-147 -27q-26 -102 -9 -194t63 -161t114 -109t142 -41t147 44t131 147q18 0 27 -11 t12 -26t3 -32t-2 -31q-92 -126 -187 -173t-183 -36t-164 71t-132 149t-87 196t-27 213q-24 24 -54 34t-57 22t-45 35t-18 71zM296 732q-2 6 32 8t86 9t113 18t116 34t95 59t48 92q0 26 -13 43t-33 27t-44 15t-44 5q-88 -6 -151 -39t-105 -80t-66 -98t-34 -93zM306 1432 q0 34 24 53t58 19q20 0 42 -12t40 -30t29 -39t11 -39q0 -24 -5 -55t-35 -31q-24 0 -53 11t-54 30t-41 43t-16 50zM674 1432q0 34 24 53t58 19q20 0 42 -12t40 -30t29 -39t11 -39q0 -24 -5 -55t-35 -31q-24 0 -53 11t-54 30t-41 43t-16 50z" />
<glyph unicode="&#xec;" horiz-adv-x="540" d="M46 1624q0 36 11 55t51 19q14 -24 41 -49t56 -52t55 -53t37 -51t1 -47t-52 -38q-32 38 -60 59t-52 41t-46 45t-42 71zM92 392l28 840q16 66 44 69t53 -26t38 -74t-1 -71q6 -56 1 -142t-13 -183t-15 -197t-7 -186t11 -148t38 -84t76 7t125 125q44 -34 37 -84t-40 -99 t-81 -88t-86 -51q-76 -16 -117 26t-62 109t-25 140t-4 117z" />
<glyph unicode="&#xed;" horiz-adv-x="540" d="M76 1493q-10 21 1 45t40 50t60 52t61 51t44 47q44 0 56 -19t12 -53q-22 -44 -46 -69t-50 -44t-56 -40t-66 -57q-46 16 -56 37zM92 392l28 840q16 66 44 69t53 -26t38 -74t-1 -71q6 -56 1 -142t-13 -183t-15 -197t-7 -186t11 -148t38 -84t76 7t125 125q44 -34 37 -84 t-40 -99t-81 -88t-86 -51q-76 -16 -117 26t-62 109t-25 140t-4 117z" />
<glyph unicode="&#xee;" horiz-adv-x="540" d="M-152 1400q12 66 48 146t87 154t111 132t118 82q30 0 78 -47t92 -111t76 -128t32 -98q0 -20 -12 -32t-28 -18t-36 -8t-34 -2q-42 0 -68 26t-43 63t-30 79t-31 74q-2 0 -5 1t-5 1q-28 0 -47 -25t-36 -64t-34 -83t-38 -83t-48 -64t-67 -25h-20t-27 3t-23 9t-10 18zM92 392 l28 840q16 66 44 69t53 -26t38 -74t-1 -71q6 -56 1 -142t-13 -183t-15 -197t-7 -186t11 -148t38 -84t76 7t125 125q44 -34 37 -84t-40 -99t-81 -88t-86 -51q-76 -16 -117 26t-62 109t-25 140t-4 117z" />
<glyph unicode="&#xef;" horiz-adv-x="540" d="M-134 1608q0 34 24 53t58 19q20 0 42 -12t40 -30t29 -39t11 -39q0 -24 -5 -55t-35 -31q-24 0 -53 11t-54 30t-41 43t-16 50zM92 392l28 840q16 66 44 69t53 -26t38 -74t-1 -71q6 -56 1 -142t-13 -183t-15 -197t-7 -186t11 -148t38 -84t76 7t125 125q44 -34 37 -84 t-40 -99t-81 -88t-86 -51q-76 -16 -117 26t-62 109t-25 140t-4 117zM234 1608q0 34 24 53t58 19q20 0 42 -12t40 -30t29 -39t11 -39q0 -24 -5 -55t-35 -31q-24 0 -53 11t-54 30t-41 43t-16 50z" />
<glyph unicode="&#xf1;" horiz-adv-x="1032" d="M59 261q-1 125 2 255t12 262t27 262q-6 20 9 47t37 38t43 -5t27 -80q0 -38 1 -56t1 -38t1 -51t1 -95q30 48 59 111t70 120t103 94t158 35q116 4 186 -38t107 -119t48 -184t9 -232t-10 -265t-10 -282q-12 -26 -35 -36t-46 -5t-41 22t-20 47q2 114 11 227t14 217t1 195 t-25 159t-66 109t-123 45q-92 -26 -157 -99t-109 -171t-71 -209t-45 -212t-31 -183t-29 -122h-18t-36 -1t-36 -2t-18 1q0 114 -1 239zM140 1325q2 53 25 114t64 112t95 57q46 -12 96 -43t99 -68t94 -74t82 -60t62 -25t35 30q22 24 24 54t-5 64t-17 70t-10 72q44 22 73 9 t44 -43t21 -69t6 -69q2 -106 -17 -162t-51 -75t-75 -9t-92 36t-101 61t-102 66t-94 51t-76 16q-30 -14 -44 -38t-20 -50t-8 -50t-10 -38t-25 -16t-51 18q-24 6 -22 59z" />
<glyph unicode="&#xf2;" horiz-adv-x="1020" d="M58 358q2 106 30 227t80 238t126 221t166 176q26 -6 33 -19t7 -27t2 -28t18 -26q134 -4 225 -54t142 -130t64 -179t-5 -203t-66 -203t-120 -176t-166 -125t-204 -50q-78 0 -139 29t-104 78t-66 114t-23 137zM180 370q0 -94 52 -153t142 -59q106 -6 197 48t154 140t92 191 t14 201t-80 168t-191 94q-66 0 -119 -34t-95 -88t-73 -123t-52 -139t-31 -135t-10 -111zM318 1568q0 36 11 55t51 19q14 -24 41 -49t56 -52t55 -53t37 -51t1 -47t-52 -38q-32 38 -60 59t-52 41t-46 45t-42 71z" />
<glyph unicode="&#xf3;" horiz-adv-x="1020" d="M58 358q2 106 30 227t80 238t126 221t166 176q26 -6 33 -19t7 -27t2 -28t18 -26q134 -4 225 -54t142 -130t64 -179t-5 -203t-66 -203t-120 -176t-166 -125t-204 -50q-78 0 -139 29t-104 78t-66 114t-23 137zM180 370q0 -94 52 -153t142 -59q106 -6 197 48t154 140t92 191 t14 201t-80 168t-191 94q-66 0 -119 -34t-95 -88t-73 -123t-52 -139t-31 -135t-10 -111zM372 1421q-10 21 1 45t40 50t60 52t61 51t44 47q44 0 56 -19t12 -53q-22 -44 -46 -69t-50 -44t-56 -40t-66 -57q-46 16 -56 37z" />
<glyph unicode="&#xf4;" horiz-adv-x="1020" d="M58 358q2 106 30 227t80 238t126 221t166 176q26 -6 33 -19t7 -27t2 -28t18 -26q134 -4 225 -54t142 -130t64 -179t-5 -203t-66 -203t-120 -176t-166 -125t-204 -50q-78 0 -139 29t-104 78t-66 114t-23 137zM180 370q0 -94 52 -153t142 -59q106 -6 197 48t154 140t92 191 t14 201t-80 168t-191 94q-66 0 -119 -34t-95 -88t-73 -123t-52 -139t-31 -135t-10 -111zM188 1264q12 66 48 146t87 154t111 132t118 82q30 0 78 -47t92 -111t76 -128t32 -98q0 -20 -12 -32t-28 -18t-36 -8t-34 -2q-42 0 -68 26t-43 63t-30 79t-31 74q-2 0 -5 1t-5 1 q-28 0 -47 -25t-36 -64t-34 -83t-38 -83t-48 -64t-67 -25h-20t-27 3t-23 9t-10 18z" />
<glyph unicode="&#xf5;" horiz-adv-x="1020" d="M58 358q2 106 30 227t80 238t126 221t166 176q26 -6 33 -19t7 -27t2 -28t18 -26q134 -4 225 -54t142 -130t64 -179t-5 -203t-66 -203t-120 -176t-166 -125t-204 -50q-78 0 -139 29t-104 78t-66 114t-23 137zM134 1325q2 53 25 114t64 112t95 57q46 -12 96 -43t99 -68 t94 -74t82 -60t62 -25t35 30q22 24 24 54t-5 64t-17 70t-10 72q44 22 73 9t44 -43t21 -69t6 -69q2 -106 -17 -162t-51 -75t-75 -9t-92 36t-101 61t-102 66t-94 51t-76 16q-30 -14 -44 -38t-20 -50t-8 -50t-10 -38t-25 -16t-51 18q-24 6 -22 59zM180 370q0 -94 52 -153 t142 -59q106 -6 197 48t154 140t92 191t14 201t-80 168t-191 94q-66 0 -119 -34t-95 -88t-73 -123t-52 -139t-31 -135t-10 -111z" />
<glyph unicode="&#xf6;" horiz-adv-x="1020" d="M58 358q2 106 30 227t80 238t126 221t166 176q26 -6 33 -19t7 -27t2 -28t18 -26q134 -4 225 -54t142 -130t64 -179t-5 -203t-66 -203t-120 -176t-166 -125t-204 -50q-78 0 -139 29t-104 78t-66 114t-23 137zM180 370q0 -94 52 -153t142 -59q106 -6 197 48t154 140t92 191 t14 201t-80 168t-191 94q-66 0 -119 -34t-95 -88t-73 -123t-52 -139t-31 -135t-10 -111zM208 1464q0 34 24 53t58 19q20 0 42 -12t40 -30t29 -39t11 -39q0 -24 -5 -55t-35 -31q-24 0 -53 11t-54 30t-41 43t-16 50zM576 1464q0 34 24 53t58 19q20 0 42 -12t40 -30t29 -39 t11 -39q0 -24 -5 -55t-35 -31q-24 0 -53 11t-54 30t-41 43t-16 50z" />
<glyph unicode="&#xf7;" horiz-adv-x="832" d="M94 584q4 24 16 44t24 24q12 0 40 2t86 4t158 5t256 9q68 0 98 -21t28 -48t-35 -50t-91 -25l-540 -16q-28 6 -36 27t-4 45zM296 872q0 36 32 48t60 12q60 -24 80 -58t13 -64t-32 -52t-55 -20t-58 32t-40 102zM392 378q0 42 10 51t54 19h10q32 4 54 -16t29 -50t0 -62 t-33 -52h-8q-54 0 -85 29t-31 81z" />
<glyph unicode="&#xf8;" horiz-adv-x="1020" d="M58 358q2 106 30 227t80 238t126 221t166 176q26 -6 33 -19t7 -27t2 -28t18 -26q134 -4 225 -54t142 -130t64 -179t-5 -203t-66 -203t-120 -176t-166 -125t-204 -50q-78 0 -139 29t-104 78t-66 114t-23 137zM150 17q17 43 62 133.5t104.5 202t125.5 233t123.5 228.5 t98.5 187.5t51 108.5q2 36 37.5 57t70 22.5t53.5 -19t-8 -64.5q-55 -149 -131 -283.5t-154.5 -269t-146.5 -272.5t-104 -292q-12 -27 -46.5 -37.5t-67 -6t-55.5 22.5t-13 49zM180 370q0 -94 52 -153t142 -59q106 -6 197 48t154 140t92 191t14 201t-80 168t-191 94 q-66 0 -119 -34t-95 -88t-73 -123t-52 -139t-31 -135t-10 -111z" />
<glyph unicode="&#xf9;" horiz-adv-x="1136" d="M78 469q-2 109 8 224t24 231t18 220q10 26 36 42t53 16t46 -17t17 -55q-6 -82 -20 -188t-26 -217t-18 -217t5 -188t43 -131t96 -45q66 10 123 61t104 127t84 168t63 185t39 180t15 151q10 50 15 86t17 57t36 25t72 -8q6 -142 4 -285t11 -283t52 -273t125 -255 q-4 -16 -7 -33t-11 -29t-22 -19t-40 -1q-44 0 -76 30t-56 78t-40 108t-28 118t-22 108t-18 80q-6 -20 -27 -67t-53 -105t-74 -121t-90 -112t-101 -77t-109 -20q-102 28 -159 94t-82 157t-27 200zM408 1528q0 36 11 55t51 19q14 -24 41 -49t56 -52t55 -53t37 -51t1 -47 t-52 -38q-32 38 -60 59t-52 41t-46 45t-42 71z" />
<glyph unicode="&#xfa;" horiz-adv-x="1136" d="M78 469q-2 109 8 224t24 231t18 220q10 26 36 42t53 16t46 -17t17 -55q-6 -82 -20 -188t-26 -217t-18 -217t5 -188t43 -131t96 -45q66 10 123 61t104 127t84 168t63 185t39 180t15 151q10 50 15 86t17 57t36 25t72 -8q6 -142 4 -285t11 -283t52 -273t125 -255 q-4 -16 -7 -33t-11 -29t-22 -19t-40 -1q-44 0 -76 30t-56 78t-40 108t-28 118t-22 108t-18 80q-6 -20 -27 -67t-53 -105t-74 -121t-90 -112t-101 -77t-109 -20q-102 28 -159 94t-82 157t-27 200zM486 1349q-10 21 1 45t40 50t60 52t61 51t44 47q44 0 56 -19t12 -53 q-22 -44 -46 -69t-50 -44t-56 -40t-66 -57q-46 16 -56 37z" />
<glyph unicode="&#xfb;" horiz-adv-x="1136" d="M78 469q-2 109 8 224t24 231t18 220q10 26 36 42t53 16t46 -17t17 -55q-6 -82 -20 -188t-26 -217t-18 -217t5 -188t43 -131t96 -45q66 10 123 61t104 127t84 168t63 185t39 180t15 151q10 50 15 86t17 57t36 25t72 -8q6 -142 4 -285t11 -283t52 -273t125 -255 q-4 -16 -7 -33t-11 -29t-22 -19t-40 -1q-44 0 -76 30t-56 78t-40 108t-28 118t-22 108t-18 80q-6 -20 -27 -67t-53 -105t-74 -121t-90 -112t-101 -77t-109 -20q-102 28 -159 94t-82 157t-27 200zM254 1328q12 66 48 146t87 154t111 132t118 82q30 0 78 -47t92 -111t76 -128 t32 -98q0 -20 -12 -32t-28 -18t-36 -8t-34 -2q-42 0 -68 26t-43 63t-30 79t-31 74q-2 0 -5 1t-5 1q-28 0 -47 -25t-36 -64t-34 -83t-38 -83t-48 -64t-67 -25h-20t-27 3t-23 9t-10 18z" />
<glyph unicode="&#xfc;" horiz-adv-x="1136" d="M78 469q-2 109 8 224t24 231t18 220q10 26 36 42t53 16t46 -17t17 -55q-6 -82 -20 -188t-26 -217t-18 -217t5 -188t43 -131t96 -45q66 10 123 61t104 127t84 168t63 185t39 180t15 151q10 50 15 86t17 57t36 25t72 -8q6 -142 4 -285t11 -283t52 -273t125 -255 q-4 -16 -7 -33t-11 -29t-22 -19t-40 -1q-44 0 -76 30t-56 78t-40 108t-28 118t-22 108t-18 80q-6 -20 -27 -67t-53 -105t-74 -121t-90 -112t-101 -77t-109 -20q-102 28 -159 94t-82 157t-27 200zM290 1536q0 34 24 53t58 19q20 0 42 -12t40 -30t29 -39t11 -39q0 -24 -5 -55 t-35 -31q-24 0 -53 11t-54 30t-41 43t-16 50zM658 1536q0 34 24 53t58 19q20 0 42 -12t40 -30t29 -39t11 -39q0 -24 -5 -55t-35 -31q-24 0 -53 11t-54 30t-41 43t-16 50z" />
<glyph unicode="&#xfd;" horiz-adv-x="996" d="M0 898q0 12 9 29t21 32t26 25t24 8q84 -130 163 -261t152 -248t138 -213t123 -154q26 108 50 245t42 283t32 289t24 261q76 0 106 -30t34 -116q-18 -190 -47 -400t-69 -468t-88 -577t-104 -727q-38 -42 -72 -48t-57 13t-33 54t-2 73q26 126 46 220t34 169t25 137t18 123 t12 128t9 151q-26 36 -77 114t-114 178t-131 210t-127 210t-105 177t-62 113zM424 1277q-10 21 1 45t40 50t60 52t61 51t44 47q44 0 56 -19t12 -53q-22 -44 -46 -69t-50 -44t-56 -40t-66 -57q-46 16 -56 37z" />
<glyph unicode="&#xff;" horiz-adv-x="996" d="M0 898q0 12 9 29t21 32t26 25t24 8q84 -130 163 -261t152 -248t138 -213t123 -154q26 108 50 245t42 283t32 289t24 261q76 0 106 -30t34 -116q-18 -190 -47 -400t-69 -468t-88 -577t-104 -727q-38 -42 -72 -48t-57 13t-33 54t-2 73q26 126 46 220t34 169t25 137t18 123 t12 128t9 151q-26 36 -77 114t-114 178t-131 210t-127 210t-105 177t-62 113zM116 1456q0 34 24 53t58 19q20 0 42 -12t40 -30t29 -39t11 -39q0 -24 -5 -55t-35 -31q-24 0 -53 11t-54 30t-41 43t-16 50zM484 1456q0 34 24 53t58 19q20 0 42 -12t40 -30t29 -39t11 -39 q0 -24 -5 -55t-35 -31q-24 0 -53 11t-54 30t-41 43t-16 50z" />
<glyph unicode="&#x152;" horiz-adv-x="1904" d="M58 644q4 76 9 179t18 213t38 219t67 199t105 151t153 75h10q72 4 137 -60t117 -175t88 -255t48 -297t-4 -304t-64 -275t-135 -209t-217 -107q-74 0 -131 32t-98 85t-68 121t-43 140t-23 142t-7 126zM185 570q3 -128 30 -227t79 -156t138 -49q88 22 150 90t99 164t51 213 t8 238t-30 237t-65 212t-96 162t-121 86q-32 4 -68 -55t-68 -160t-58 -230t-39 -263t-10 -262zM672 1383q0 81 21 129t73 48q86 0 188 -2t208 3t209 21t193 54q48 -12 49 -59t-29 -97q-72 4 -168 -9t-196 -29t-196 -30t-168 -12q-44 0 -52 -45t5 -119t37 -167t44 -189 q2 0 63 12t149 30t191 38t191 37t148 28t64 9q54 -24 36 -55t-87 -64t-176 -65t-229 -58q-16 -4 -58 -15t-90 -23t-90 -22t-58 -12q-14 -198 14 -310t88 -160t147 -43t191 41q48 10 114 35t133 50t124 43t89 15t28 -35t-60 -106q-90 -36 -189 -70t-200 -63t-203 -50 t-200 -27q-90 22 -165 68t-111 87t-19 59t113 -14q16 38 10 116t-25 178t-45 215t-49 229t-40 219t-17 186z" />
<glyph unicode="&#x153;" horiz-adv-x="1664" d="M58 358q2 106 30 227t80 238t126 221t166 176q26 -6 33 -19t7 -27t2 -28t18 -26q94 -4 166 -29t124 -68t84 -100t48 -123q26 48 64 111t93 120t132 96t183 39q42 0 81 -17t68 -46t46 -66t17 -77q0 -90 -27 -147t-73 -91t-107 -51t-131 -27t-145 -19t-147 -27 q-26 -102 -9 -194t63 -161t114 -109t142 -41t147 44t131 147q18 0 27 -11t12 -26t3 -32t-2 -31q-74 -102 -151 -152t-150 -58t-141 19t-125 80t-102 126t-73 157q-36 -74 -86 -138t-112 -112t-136 -77t-158 -29q-78 0 -139 29t-104 78t-66 114t-23 137zM180 370 q0 -94 52 -153t142 -59q106 -6 197 48t154 140t92 191t14 201t-80 168t-191 94q-66 0 -119 -34t-95 -88t-73 -123t-52 -139t-31 -135t-10 -111zM1036 716q-2 4 32 7t86 10t113 18t116 34t95 59t48 92q0 26 -13 43t-33 27t-44 15t-44 5q-88 -6 -151 -39t-105 -80t-66 -98 t-34 -93z" />
<glyph unicode="&#x178;" horiz-adv-x="1100" d="M40 1592q0 34 13 62t47 28q28 -4 72 -42t97 -97t112 -131t118 -145t116 -138t105 -109q46 72 71 155t44 169t37 172t48 164q20 0 42 2t39 -2t29 -16t12 -42q-24 -108 -54 -238t-63 -270t-69 -284t-73 -282t-73 -263t-70 -225q-14 -40 -43 -55t-60 -9t-54 33t-25 71 q42 90 81 178t68 179t44 186t9 197q-82 98 -164 188t-162 180t-154 184t-140 200zM264 1920q0 34 24 53t58 19q20 0 42 -12t40 -30t29 -39t11 -39q0 -24 -5 -55t-35 -31q-24 0 -53 11t-54 30t-41 43t-16 50zM632 1920q0 34 24 53t58 19q20 0 42 -12t40 -30t29 -39t11 -39 q0 -24 -5 -55t-35 -31q-24 0 -53 11t-54 30t-41 43t-16 50z" />
<glyph unicode="&#x2c6;" horiz-adv-x="740" d="M40 1264q12 66 48 146t87 154t111 132t118 82q30 0 78 -47t92 -111t76 -128t32 -98q0 -20 -12 -32t-28 -18t-36 -8t-34 -2q-42 0 -68 26t-43 63t-30 79t-31 74q-2 0 -5 1t-5 1q-28 0 -47 -25t-36 -64t-34 -83t-38 -83t-48 -64t-67 -25h-20t-27 3t-23 9t-10 18z" />
<glyph unicode="&#x2dc;" horiz-adv-x="872" d="M60 1325q2 53 25 114t64 112t95 57q46 -12 96 -43t99 -68t94 -74t82 -60t62 -25t35 30q22 24 24 54t-5 64t-17 70t-10 72q44 22 73 9t44 -43t21 -69t6 -69q2 -106 -17 -162t-51 -75t-75 -9t-92 36t-101 61t-102 66t-94 51t-76 16q-30 -14 -44 -38t-20 -50t-8 -50t-10 -38 t-25 -16t-51 18q-24 6 -22 59z" />
<glyph unicode="&#x2000;" horiz-adv-x="1169" />
<glyph unicode="&#x2001;" horiz-adv-x="2338" />
<glyph unicode="&#x2002;" horiz-adv-x="1169" />
<glyph unicode="&#x2003;" horiz-adv-x="2338" />
<glyph unicode="&#x2004;" horiz-adv-x="779" />
<glyph unicode="&#x2005;" horiz-adv-x="584" />
<glyph unicode="&#x2006;" horiz-adv-x="389" />
<glyph unicode="&#x2007;" horiz-adv-x="389" />
<glyph unicode="&#x2008;" horiz-adv-x="292" />
<glyph unicode="&#x2009;" horiz-adv-x="467" />
<glyph unicode="&#x200a;" horiz-adv-x="129" />
<glyph unicode="&#x2010;" horiz-adv-x="792" d="M40 632q4 24 16 44t24 24q12 0 40 2t86 4t158 5t256 9q68 0 98 -21t28 -48t-35 -50t-91 -25l-540 -16q-28 6 -36 27t-4 45z" />
<glyph unicode="&#x2011;" horiz-adv-x="792" d="M40 632q4 24 16 44t24 24q12 0 40 2t86 4t158 5t256 9q68 0 98 -21t28 -48t-35 -50t-91 -25l-540 -16q-28 6 -36 27t-4 45z" />
<glyph unicode="&#x2012;" horiz-adv-x="792" d="M40 632q4 24 16 44t24 24q12 0 40 2t86 4t158 5t256 9q68 0 98 -21t28 -48t-35 -50t-91 -25l-540 -16q-28 6 -36 27t-4 45z" />
<glyph unicode="&#x2013;" horiz-adv-x="864" d="M40 632q4 24 16 44t24 24h49t107 1t179 3t265 8q68 0 98 -21t28 -48t-35 -50t-91 -25l-600 -8q-28 6 -36 27t-4 45z" />
<glyph unicode="&#x2014;" horiz-adv-x="1016" d="M40 632q4 24 16 44t24 24q12 0 75 2t165 4t237 5t291 9q68 0 98 -21t28 -48t-35 -50t-91 -25l-768 -16q-28 6 -36 27t-4 45z" />
<glyph unicode="&#x2018;" horiz-adv-x="296" d="M91 1501q5 51 20 92t39 59q18 18 44 14t38 -10q-8 -30 -19 -79t-16 -103t1 -105t34 -81q-2 -10 -24 -12t-46 -1t-40 7t-4 14q-20 44 -26 99t-1 106z" />
<glyph unicode="&#x2019;" horiz-adv-x="296" d="M120 1288q22 30 28 81t2 105t-14 103t-16 79q10 6 31 10t37 -14q20 -18 33 -59t17 -92t-2 -106t-22 -99q10 -8 -3 -14t-32 -7t-38 1t-21 12z" />
<glyph unicode="&#x201a;" horiz-adv-x="296" d="M104 8q22 30 28 81t2 105t-14 103t-16 79q10 6 31 10t37 -14q20 -18 33 -59t17 -92t-2 -106t-22 -99q10 -8 -3 -14t-32 -7t-38 1t-21 12z" />
<glyph unicode="&#x201c;" horiz-adv-x="456" d="M85 1513q5 51 20 91t39 56q18 18 43 14t37 -10q-8 -28 -19 -77t-16 -102t1 -102t34 -79q-2 -10 -24 -12t-46 -1t-39 7t-3 14q-20 44 -26 97t-1 104zM267 1505q5 51 20 91t39 56q18 18 44 14t38 -10q-8 -28 -19 -77t-16 -102t1 -102t34 -79q-2 -10 -24 -12t-46 -1t-39 7 t-3 14q-20 44 -27 97t-2 104z" />
<glyph unicode="&#x201d;" horiz-adv-x="456" d="M120 1288q22 30 28 81t2 105t-14 103t-16 79q10 6 31 10t37 -14q20 -18 33 -59t17 -92t-2 -106t-22 -99q10 -8 -3 -14t-32 -7t-38 1t-21 12zM274 1296q22 30 28 81t2 105t-14 103t-16 79q10 6 31 10t37 -14q20 -18 33 -59t17 -92t-2 -106t-22 -99q10 -8 -3 -14t-32 -7 t-38 1t-21 12z" />
<glyph unicode="&#x201e;" horiz-adv-x="456" d="M106 40q22 30 28 81t2 105t-14 103t-16 79q10 6 31 10t37 -14q20 -18 33 -59t17 -92t-2 -106t-22 -99q10 -8 -3 -14t-32 -7t-38 1t-21 12zM260 48q22 30 28 81t2 105t-14 103t-16 79q10 6 31 10t37 -14q20 -18 33 -59t17 -92t-2 -106t-22 -99q10 -8 -3 -14t-32 -7t-38 1 t-21 12z" />
<glyph unicode="&#x2026;" horiz-adv-x="1104" d="M106 130q0 34 24 53t58 19q20 0 42 -12t40 -30t29 -39t11 -39q0 -24 -5 -55t-35 -31q-24 0 -53 11t-54 30t-41 43t-16 50zM474 130q0 34 24 53t58 19q20 0 42 -12t40 -30t29 -39t11 -39q0 -24 -5 -55t-35 -31q-24 0 -53 11t-54 30t-41 43t-16 50zM842 130q0 34 24 53 t58 19q20 0 42 -12t40 -30t29 -39t11 -39q0 -24 -5 -55t-35 -31q-24 0 -53 11t-54 30t-41 43t-16 50z" />
<glyph unicode="&#x202f;" horiz-adv-x="467" />
<glyph unicode="&#x205f;" horiz-adv-x="584" />
<glyph unicode="&#x20ac;" horiz-adv-x="1248" d="M40 927q4 29 38 58t98 39q62 20 140 30t166 22q48 128 119 252t155 218t177 148t187 44q36 2 69 -22t49 -51t6 -47t-60 -10q-32 6 -100 -19t-146 -80t-151 -143t-117 -210q54 -6 104 -3t100 10l100 14t102 11q0 -86 -34 -128t-86 -57t-112 -14t-114 -1t-91 -16t-43 -58 l-44 -186q96 0 158 -5t115 -4t112 14t149 49q16 0 37 -3t21 -39q0 -48 -34 -76t-87 -43t-118 -21t-127 -8t-113 -5t-75 -13q-8 -154 22 -239t82 -117t119 -21t131 50t118 97t82 118q28 0 42 -33t14 -79q-50 -118 -129 -189t-169 -97t-179 -8t-161 79t-117 163t-43 244 q-14 2 -49 -3t-74 -11t-75 -11t-50 -3q-34 -8 -48 14t-14 52t13 59t31 35l264 28q2 0 12 38t12 94q-2 44 -38 55t-84 6t-94 -18t-70 -15q-52 -6 -77 15t-21 50z" />
<glyph unicode="&#x25fc;" horiz-adv-x="1210" d="M0 0v1210h1210v-1210h-1210z" />
</font>
</defs>
</svg>
